<svg class="submit-button" width="100%" height="100%" viewBox="0 0 51 51" version="1.1" xmlns="http://www.w3.org/2000/svg" xmlns:xlink="http://www.w3.org/1999/xlink" style="fill-rule:evenodd;clip-rule:evenodd;stroke-linejoin:round;stroke-miterlimit:2;">
    <path d="M45.223,44.567C45.289,44.722 45.273,44.899 45.181,45.039C45.088,45.179 44.931,45.264 44.763,45.264L6.559,45.264C6.377,45.264 6.209,45.164 6.121,45.005C6.034,44.845 6.04,44.65 6.137,44.496L17.137,27.125C17.229,26.98 17.388,26.892 17.559,26.892C17.731,26.892 17.89,26.98 17.982,27.125L24.324,37.14C24.423,37.297 24.601,37.386 24.786,37.371C24.972,37.356 25.133,37.24 25.206,37.069L33.153,18.475C33.231,18.291 33.412,18.172 33.612,18.172C33.813,18.172 33.994,18.291 34.072,18.475L45.223,44.567ZM47.63,19.518C47.762,19.518 47.89,19.57 47.983,19.664C48.077,19.758 48.13,19.885 48.13,20.018L48.13,48.086C48.13,48.638 47.682,49.086 47.13,49.086L3.072,49.086C2.52,49.086 2.072,48.638 2.072,48.086L2.072,2.733C2.072,2.18 2.52,1.733 3.072,1.733L30.652,1.733C30.784,1.733 30.911,1.785 31.005,1.879C31.099,1.973 31.152,2.1 31.152,2.233L31.152,3.233C31.152,3.365 31.099,3.492 31.005,3.586C30.911,3.68 30.784,3.733 30.652,3.733L4.572,3.733C4.296,3.733 4.072,3.956 4.072,4.233L4.06,46.586C4.06,46.719 4.112,46.846 4.206,46.94C4.3,47.033 4.427,47.086 4.56,47.086L45.63,47.086C45.906,47.086 46.13,46.862 46.13,46.586L46.13,20.018C46.13,19.741 46.354,19.518 46.63,19.518L47.63,19.518ZM38.104,12.085L32.017,12.085C31.327,12.085 30.767,11.525 30.767,10.835C30.767,10.145 31.327,9.585 32.017,9.585L38.104,9.585L38.104,3.499C38.104,2.809 38.664,2.249 39.354,2.249C40.043,2.249 40.604,2.809 40.604,3.499L40.604,9.585L46.69,9.585C47.38,9.585 47.94,10.145 47.94,10.835C47.94,11.525 47.38,12.085 46.69,12.085L40.604,12.085L40.604,18.172C40.604,18.862 40.043,19.422 39.354,19.422C38.664,19.422 38.104,18.862 38.104,18.172L38.104,12.085Z"/>
</svg>
