<?xml version="1.0" encoding="UTF-8" standalone="no"?>
<!DOCTYPE svg PUBLIC "-//W3C//DTD SVG 1.1//EN" "http://www.w3.org/Graphics/SVG/1.1/DTD/svg11.dtd">
<svg width="100%" height="100%" viewBox="0 0 884 170" version="1.1" xmlns="http://www.w3.org/2000/svg" xmlns:xlink="http://www.w3.org/1999/xlink" xml:space="preserve" xmlns:serif="http://www.serif.com/" style="fill-rule:evenodd;clip-rule:evenodd;stroke-linejoin:round;stroke-miterlimit:2;">
    <g transform="matrix(1,0,0,1,-3690,-1386)">
        <g transform="matrix(1,0,0,1,0,1386)">
            <rect id="wed" x="3690" y="0" width="884" height="170" style="fill:none;"/>
            <g id="wed1" serif:id="wed">
                <g transform="matrix(0.317378,7.70372e-34,-3.85186e-34,0.317378,3100.65,-208.344)">
                    <text x="2547px" y="1072px" style="font-family:'Helvetica';font-size:479.993px;fill:rgb(234,218,196);">ednesday</text>
                </g>
                <g id="W" transform="matrix(2.70904e-16,4.4242,-4.4242,2.70904e-16,11647.7,564.047)">
                    <path d="M-96.49,1775.95C-95.916,1776.91 -95.501,1777.7 -95.246,1778.34C-94.352,1780.38 -93.906,1782.27 -93.906,1783.99C-93.906,1788.07 -95.357,1791.31 -98.261,1793.7C-101.164,1796.1 -104.626,1797.29 -108.646,1797.29C-114.899,1797.29 -119.717,1793.88 -123.099,1787.05C-124.183,1784.82 -125.236,1781.37 -126.257,1776.71L-122.907,1774.8C-122.205,1779.08 -121.408,1782.27 -120.514,1784.37C-117.834,1790.82 -113.814,1794.04 -108.454,1794.04C-105.264,1794.04 -102.664,1793.1 -100.654,1791.22C-98.644,1789.33 -97.639,1786.8 -97.639,1783.61C-97.639,1780.99 -98.691,1778.76 -100.797,1776.91C-103.477,1774.55 -105.902,1773.36 -108.071,1773.36L-114.101,1773.36L-114.101,1769.92L-108.454,1769.92C-106.668,1769.6 -105.328,1769.25 -104.434,1768.87C-101.754,1767.59 -100.414,1765.52 -100.414,1762.64C-100.414,1760.35 -101.276,1758.47 -102.999,1757C-104.721,1755.53 -106.987,1754.8 -109.794,1754.8C-111.709,1754.8 -113.559,1755.27 -115.346,1756.23C-115.92,1756.55 -116.622,1757.06 -117.451,1757.76L-119.366,1754.41C-118.026,1753.71 -116.941,1753.2 -116.111,1752.88C-113.495,1751.8 -111.453,1751.25 -109.986,1751.25C-106.157,1751.25 -102.983,1752.32 -100.462,1754.46C-97.942,1756.6 -96.681,1759.39 -96.681,1762.84C-96.681,1765.64 -97.766,1768.04 -99.936,1770.01C-100.638,1770.65 -101.754,1771.39 -103.286,1772.22C-102.265,1772.66 -101.467,1773.01 -100.893,1773.27C-98.979,1774.23 -97.511,1775.12 -96.49,1775.95Z" style="fill:rgb(234,218,196);fill-rule:nonzero;stroke:rgb(234,218,196);stroke-width:1.47px;"/>
                </g>
            </g>
        </g>
    </g>
</svg>
