<?xml version="1.0" encoding="UTF-8" standalone="no"?>
<!DOCTYPE svg PUBLIC "-//W3C//DTD SVG 1.1//EN" "http://www.w3.org/Graphics/SVG/1.1/DTD/svg11.dtd">
<svg width="100%" height="100%" viewBox="0 0 547 593" version="1.1" xmlns="http://www.w3.org/2000/svg" xmlns:xlink="http://www.w3.org/1999/xlink" xml:space="preserve" xmlns:serif="http://www.serif.com/" style="fill-rule:evenodd;clip-rule:evenodd;stroke-linejoin:round;stroke-miterlimit:2;">
    <g id="cog" transform="matrix(0.931955,0,0,0.931948,-922.563,-561.965)">
        <path d="M1002.6,984.989C1000.38,971.162 1000,958.084 1000,940.562C1000,853.198 1040.34,775.181 1103.38,724.138C1102.4,715.521 1101.86,706.24 1101.86,696.57C1101.86,651.464 1113.54,614.844 1127.92,614.844C1141.76,614.844 1153.1,648.776 1153.93,691.548C1170.81,683.09 1188.66,676.299 1207.29,671.389C1232.13,663.657 1260.25,658.38 1286.93,659.143C1320.76,659.143 1348.21,663.488 1368.19,671.695C1371.5,632.11 1382.53,603 1395.6,603C1411.29,603 1424.03,644.927 1424.03,696.57C1424.03,698.852 1424,701.116 1423.95,703.353C1452.71,721.059 1513.84,765.398 1546.79,830.127C1573.65,882.898 1571,955.204 1571,955.204C1571,1109.68 1443.4,1234.91 1286,1234.91C1138.85,1234.91 1017.74,1125.45 1002.6,984.989ZM1243.25,965.654L1263.1,964.643C1263.6,981.156 1271.93,995.717 1284.5,1004.73C1285.17,1005.22 1286.11,1005.06 1286.59,1004.39C1287.07,1003.72 1286.92,1002.78 1286.25,1002.3C1274.04,993.539 1266.08,979.227 1266.07,963.07L1266.07,963.061C1266.08,948.605 1272.45,935.626 1282.54,926.781C1283.16,926.235 1283.22,925.287 1282.67,924.664C1282.13,924.042 1281.18,923.98 1280.56,924.525C1270.18,933.629 1263.5,946.856 1263.09,961.64L1172.67,966.245C1172.96,964.423 1173.12,962.558 1173.12,960.661C1173.12,950.985 1169.1,942.147 1162.46,935.449C1161.88,934.861 1160.93,934.856 1160.34,935.439C1159.75,936.022 1159.75,936.972 1160.33,937.56C1166.41,943.699 1170.12,951.792 1170.12,960.661C1170.12,971.986 1164.08,982.04 1154.76,988.388C1154.08,988.854 1153.9,989.788 1154.37,990.472C1154.83,991.156 1155.77,991.333 1156.45,990.867C1164.15,985.619 1169.77,978.029 1172.03,969.282L1195.88,968.067C1195.97,981.793 1203.24,1002.03 1219.57,1000.97C1240.78,999.593 1243.23,979.379 1243.25,965.654ZM1218.07,966.674L1218.07,986.199C1218.07,987.027 1218.74,987.699 1219.57,987.699C1220.39,987.699 1221.07,987.027 1221.07,986.199C1221.07,986.199 1221,985.776 1221,966.511C1221,966.498 1218.07,966.674 1218.07,966.674ZM1394.21,815.539C1384.34,800.18 1367.1,790 1347.5,790C1343.45,790 1339.5,790.435 1335.69,791.263C1310.28,795.997 1291.03,818.3 1291.03,845.065C1291.03,862.396 1299.1,877.857 1311.69,887.887C1321.36,896.067 1333.86,901 1347.5,901C1366.18,901 1382.72,891.749 1392.78,877.586C1382.37,898.012 1362.46,911.834 1339.63,911.834C1306.05,911.834 1278.79,881.916 1278.79,845.065C1278.79,808.214 1306.05,778.295 1339.63,778.295C1363.56,778.295 1384.28,793.479 1394.21,815.539ZM1130.73,778.295C1166.69,778.295 1195.88,808.214 1195.88,845.065C1195.88,881.916 1166.69,911.834 1130.73,911.834C1094.78,911.834 1065.59,881.916 1065.59,845.065C1065.59,808.214 1094.78,778.295 1130.73,778.295ZM1134.29,793.89C1164.49,793.89 1189.02,818.413 1189.02,848.618C1189.02,878.823 1164.49,903.346 1134.29,903.346C1104.08,903.346 1079.56,878.823 1079.56,848.618C1079.56,818.413 1104.08,793.89 1134.29,793.89ZM1290.83,665.835C1272.94,665.37 1257.13,665.515 1238.17,669.529C1230.17,725.109 1233.88,758.134 1248.51,754.607C1275.78,748.033 1287.06,692.29 1290.87,665.837L1290.86,665.836C1290.66,667.084 1290.48,668.315 1290.29,669.529C1290.46,668.262 1290.64,667.03 1290.83,665.835ZM1234,671.007C1214.13,675.232 1195.1,682.127 1175.81,691.968C1170.29,712.372 1172.36,756.36 1205.48,740.394C1218.52,734.104 1228.67,698.998 1234,671.007ZM1295.95,665.837C1293.03,701.449 1290.58,741.661 1302.99,740.394C1347.02,735.899 1352.17,706.129 1356.63,678.532C1337.72,670.967 1320.18,666.483 1295.95,665.837Z"/>
    </g>
</svg>
