<svg width="2000" height="1000" xmlns="http://www.w3.org/2000/svg"><defs><linearGradient id="a" gradientTransform="rotate(90)"><stop offset="5%" stop-color="#c8d17a"/><stop offset="95%" stop-color="#d5dc9b"/></linearGradient><linearGradient id="b" gradientTransform="rotate(90)"><stop offset="5%" stop-color="#d1cf73"/><stop offset="95%" stop-color="#dcdb96"/></linearGradient><linearGradient id="c" gradientTransform="rotate(90)"><stop offset="5%" stop-color="#d7c073"/><stop offset="95%" stop-color="#e1cf96"/></linearGradient><linearGradient id="d" gradientTransform="rotate(90)"><stop offset="5%" stop-color="#d8ab78"/><stop offset="95%" stop-color="#e1c099"/></linearGradient><linearGradient id="e" gradientTransform="rotate(90)"><stop offset="5%" stop-color="#d49183"/><stop offset="95%" stop-color="#deaca2"/></linearGradient><linearGradient id="f" gradientTransform="rotate(90)"><stop offset="5%" stop-color="#ce8479"/><stop offset="95%" stop-color="#daa29a"/></linearGradient><linearGradient id="g" gradientTransform="rotate(90)"><stop offset="5%" stop-color="#c87b68"/><stop offset="95%" stop-color="#d59c8d"/></linearGradient></defs><path fill="#bece83" d="M0 0h2000v1000H0z"/><path d="M0 125c110.572-1.692 221.144-3.384 334-5s227.997-3.155 339-2c111.003 1.155 217.868 5.003 327 4 109.132-1.003 220.53-6.856 328-4s211.011 14.423 335 14c123.989-.423 268.425-12.835 328-16 59.575-3.165 34.287 2.918 49 9l-40 875H0Z" fill="url(#a)"/><path d="M0 250c109.531-.6 219.062-1.2 327-3 107.938-1.8 214.283-4.801 328-6 113.717-1.199 234.805-.595 352 1s230.495 4.18 336 6c105.505 1.82 203.213 2.875 326 2s270.653-3.678 330-4c59.347-.322 30.173 1.84 41 4l-40 750H0Z" fill="url(#b)"/><path d="M0 375c113.585-3.179 227.17-6.358 335-4 107.83 2.358 209.903 10.253 322 9 112.097-1.253 234.217-11.653 349-14 114.783-2.347 222.23 3.36 326 4 103.77.64 203.861-3.79 328-3 124.139.79 272.325 6.797 333 9 60.675 2.203 33.837.602 47-1l-40 625H0Z" fill="url(#c)"/><path d="M0 500c110.465-5.244 220.93-10.488 329-10 108.07.488 213.747 6.71 329 9 115.253 2.29 240.082.65 354-1s216.927-3.308 322-2c105.073 1.308 212.212 5.583 339 8 126.788 2.417 273.225 2.976 331 2 57.775-.976 26.887-3.488 36-6l-40 500H0Z" fill="url(#d)"/><path d="M0 625c113.818-1.606 227.636-3.211 340-1s223.273 8.24 332 7c108.727-1.24 215.272-9.746 328-11 112.728-1.254 231.638 4.746 341 6 109.362 1.254 209.174-2.24 332-4 122.826-1.76 268.664-1.789 327-1 58.336.789 29.168 2.394 40 4l-40 375H0Z" fill="url(#e)"/><path d="M0 750c104.645 4.666 209.29 9.332 324 7 114.71-2.332 239.487-11.66 351-15s209.762-.69 322 0 238.466-.578 347-1c108.534-.422 199.375.002 324 1s283.036 2.57 344 4c60.964 1.43 24.482 2.715 28 4l-40 250H0Z" fill="url(#f)"/><path d="M0 875c110.137-2.71 220.274-5.42 333-2s228.041 12.968 342 11 226.56-15.453 334-19c107.44-3.547 209.716 2.843 315 5 105.284 2.157 213.577.08 340-2s270.978-4.166 330-3c59.022 1.166 32.51 5.583 46 10l-40 125H0Z" fill="url(#g)"/></svg>