<?xml version="1.0" encoding="UTF-8" standalone="no"?>
<!DOCTYPE svg PUBLIC "-//W3C//DTD SVG 1.1//EN" "http://www.w3.org/Graphics/SVG/1.1/DTD/svg11.dtd">
<svg width="100%" height="100%" viewBox="0 0 571 511" version="1.1" xmlns="http://www.w3.org/2000/svg" xmlns:xlink="http://www.w3.org/1999/xlink" xml:space="preserve" xmlns:serif="http://www.serif.com/" style="fill-rule:evenodd;clip-rule:evenodd;stroke-linecap:round;stroke-linejoin:round;stroke-miterlimit:1.5;">
    <g transform="matrix(1,0,0,1,-1818,-279)">
        <g id="peak" transform="matrix(1,0,0,1,571,279)">
            <rect x="1247" y="0" width="571" height="511" style="fill:none;"/>
            <clipPath id="_clip1">
                <rect x="1247" y="0" width="571" height="511"/>
            </clipPath>
            <g clip-path="url(#_clip1)">
                <g id="hole" transform="matrix(1,0,0,1,1059.31,-68)">
                    <ellipse cx="474.5" cy="384.5" rx="285.5" ry="96.5" style="stroke:rgb(235,235,235);stroke-width:1px;"/>
                </g>
                <g id="whole-mouse" transform="matrix(0.447499,0,0,0.44815,1184.48,150.497)">
                    <g id="mouse-torso">
                        <g id="left-whisker-high" transform="matrix(-0.279027,-0.174703,-0.220519,0.351178,1154.14,320.405)">
                            <path d="M944.278,263.973C981.293,263.973 1011.55,235.96 1047.42,226.981C1107.64,211.905 1191.25,213.649 1249.61,234.403C1266.46,240.392 1335.84,264.696 1335.84,291.84" style="fill:none;stroke:black;stroke-width:14.91px;"/>
                        </g>
                        <g id="left-whisker-low" transform="matrix(-0.301588,-0.135019,-0.188492,0.368262,1163.46,283.95)">
                            <path d="M944.278,263.973C981.293,263.973 1011.55,235.96 1047.42,226.981C1107.64,211.905 1191.25,213.649 1249.61,234.403C1266.46,240.392 1335.84,264.696 1335.84,291.84" style="fill:none;stroke:black;stroke-width:14.55px;"/>
                        </g>
                        <g id="head" transform="matrix(2.23464,0,0,2.23139,-3922.87,-958.377)">
                            <path d="M2044.34,599.294C2060.33,594.898 2074.77,592.416 2084.03,592.637C2097.06,560.661 2143.88,513.678 2173.23,525.584C2202.62,537.504 2203.44,603.968 2190.47,635.949C2187.56,643.109 2183.59,649.482 2178.83,654.93C2105.78,653.582 2060.22,632.855 2044.34,599.294Z" style="fill:rgb(152,118,118);stroke:rgb(152,118,118);stroke-width:1px;"/>
                        </g>
                        <g id="right-ear-back" transform="matrix(2.23464,0,0,2.23139,-3922.87,-958.377)">
                            <path d="M2146.33,652.872C2147.07,645.081 2148.21,638.398 2149.71,633.786C2154.48,619.114 2162.95,608.829 2174.32,606.008C2185.9,603.132 2198.16,632.127 2210.59,645.836C2213.09,648.592 2215.79,651.235 2218.59,653.835C2207.89,654.605 2197.14,655 2186.5,655C2172.09,655 2158.7,654.276 2146.33,652.872Z" style="fill:rgb(152,118,118);"/>
                        </g>
                        <g id="right-ear" transform="matrix(2.23464,0,0,2.23139,-3922.87,-958.377)">
                            <path d="M2153.2,653.572C2153.72,646.892 2154.56,641.179 2155.71,637.178C2159.59,623.679 2166.74,614.302 2176.51,611.878C2186.47,609.405 2197.52,636.434 2208.48,649.321C2209.9,650.987 2211.39,652.611 2212.92,654.207C2204.09,654.732 2195.26,655 2186.5,655C2174.72,655 2163.62,654.516 2153.2,653.572Z" style="fill:rgb(167,134,134);"/>
                        </g>
                        <g id="right-ear-pink" transform="matrix(2.23464,0,0,2.23139,-3922.87,-958.377)">
                            <path d="M2162.48,654.279C2166.67,634.125 2176.2,619.239 2186.52,626.857C2191.51,630.541 2186.5,635.081 2205.62,654.582C2199.22,654.86 2192.84,655 2186.5,655C2178.15,655 2170.14,654.757 2162.48,654.279Z" style="fill:rgb(209,145,145);"/>
                        </g>
                        <g id="right-eye" transform="matrix(0.995334,0,0,0.993888,0,-13)">
                            <ellipse cx="928.5" cy="334.501" rx="14.5" ry="17.499"/>
                        </g>
                        <g id="left-eye" transform="matrix(0.417834,0.269953,-0.540693,0.834454,573.153,-230.522)">
                            <ellipse cx="928.5" cy="334.501" rx="14.5" ry="17.499"/>
                        </g>
                        <g id="p-nose" transform="matrix(0.935882,0.338353,-0.523427,1.44359,176.367,-434.061)">
                            <path d="M928.5,224.563C936.503,224.563 943,228.246 943,232.782C943,237.317 936.503,232.782 928.5,232.782C920.497,232.782 914,237.317 914,232.782C914,228.246 920.497,224.563 928.5,224.563Z" style="fill:rgb(255,147,147);"/>
                        </g>
                        <g id="right-whisker-high" transform="matrix(0.329342,0,0,0.414503,628.882,160.895)">
                            <path d="M944.278,263.973C981.293,263.973 1011.55,235.96 1047.42,226.981C1107.64,211.905 1191.25,213.649 1249.61,234.403C1266.46,240.392 1335.84,264.696 1335.84,291.84" style="fill:none;stroke:black;stroke-width:14.91px;"/>
                        </g>
                        <g id="right-whisker-right" transform="matrix(0.327344,0.0455898,-0.0362232,0.411989,640.376,125.063)">
                            <path d="M944.278,263.973C981.293,263.973 1011.55,235.96 1047.42,226.981C1107.64,211.905 1191.25,213.649 1249.61,234.403C1266.46,240.392 1335.84,264.696 1335.84,291.84" style="fill:none;stroke:black;stroke-width:14.55px;"/>
                        </g>
                    </g>
                </g>
            </g>
        </g>
    </g>
</svg>
