<?xml version="1.0" encoding="UTF-8" standalone="no"?>
<!DOCTYPE svg PUBLIC "-//W3C//DTD SVG 1.1//EN" "http://www.w3.org/Graphics/SVG/1.1/DTD/svg11.dtd">
<svg width="100%" height="100%" viewBox="0 0 1125 199" version="1.1" xmlns="http://www.w3.org/2000/svg" xmlns:xlink="http://www.w3.org/1999/xlink" xml:space="preserve" xmlns:serif="http://www.serif.com/" style="fill-rule:evenodd;clip-rule:evenodd;stroke-linejoin:round;stroke-miterlimit:2;">
    <g transform="matrix(1,0,0,1,-2178,-190)">
        <g id="Artboard4" transform="matrix(1.76127,0,0,0.298799,-1457.98,190)">
            <rect x="2064.41" y="0" width="638.408" height="666" style="fill:none;"/>
            <g transform="matrix(1.36464,0,0,3.34673,-444.458,-1327.56)">
                <g transform="matrix(0.416061,0,0,1,2017.6,-73.5829)">
                    <path d="M550.437,548.528L682.17,548.528L680.78,543.141L528.022,543.141L529.412,548.528L543.661,548.528L562.08,617.513C562.427,618.903 562.572,620.148 562.514,621.249C562.456,622.349 562.08,623.363 561.385,624.29C560.805,625.216 559.995,625.911 558.952,626.375C557.909,626.838 556.635,627.07 555.129,627.07C553.739,627.07 552.146,626.751 550.351,626.114C548.555,625.477 546.557,624.463 544.356,623.073L541.228,620.988L540.185,627.244C540.996,627.939 541.778,628.489 542.531,628.894C543.284,629.3 543.95,629.618 544.529,629.85C546.383,630.545 548.323,631.095 550.351,631.501C552.378,631.906 554.434,632.109 556.519,632.109C559.879,632.109 562.572,631.559 564.599,630.458C566.627,629.358 568.046,627.591 568.857,625.158C569.088,624.463 569.204,623.508 569.204,622.291C569.204,621.075 569.146,619.656 569.03,618.034L557.736,575.635C557.96,575.523 558.239,575.356 558.572,575.135L558.637,575.092C558.97,574.871 559.249,574.705 559.473,574.593C560.052,574.245 560.632,573.927 561.211,573.637C561.79,573.347 562.369,573.145 562.949,573.029C564.57,572.45 566.25,572.044 567.988,571.812C569.725,571.581 571.463,571.465 573.201,571.465C577.139,571.465 580.817,571.928 584.235,572.855C587.652,573.782 590.751,575.114 593.531,576.852C597.122,579.053 600.076,581.833 602.393,585.192C604.71,588.552 606.506,592.49 607.78,597.008C608.823,600.715 609.054,604.133 608.475,607.261C607.896,610.388 606.564,613.226 604.478,615.775C601.814,619.019 599.121,621.451 596.398,623.073C593.676,624.695 590.867,625.506 587.971,625.506L591.967,631.414C595.559,631.414 598.947,630.516 602.133,628.721C605.318,626.925 608.359,624.116 611.255,620.293C613.804,616.933 615.368,613.226 615.947,609.172C616.526,605.117 616.179,600.599 614.904,595.618C613.63,590.521 611.545,586.032 608.649,582.151C605.753,578.271 602.046,574.94 597.528,572.16C593.705,569.843 589.593,568.076 585.191,566.86C580.788,565.644 576.097,565.036 571.116,565.036C569.146,565.036 567.264,565.18 565.468,565.47C563.673,565.76 561.906,566.194 560.168,566.773C559.589,566.889 558.923,567.121 558.17,567.468C557.417,567.816 556.635,568.221 555.824,568.685L550.437,548.528Z" style="fill:rgb(215,84,42);fill-rule:nonzero;stroke:rgb(215,84,42);stroke-width:3px;"/>
                </g>
                <g transform="matrix(0.502063,0,0,1.2067,1841.39,-320.639)">
                    <path d="M784.39,691.427C783.334,690.584 781.656,690.564 780.92,691.812C780.92,691.812 778.44,695.819 773.731,695.819C768.526,695.819 764.313,691.601 764.313,686.4C764.313,681.197 768.526,676.98 773.731,676.98C778.44,676.98 780.92,680.987 780.92,680.987C781.748,682.368 783.334,682.216 784.389,681.372L801.188,668.005C802.249,667.162 802.297,666.396 801.292,664.815C801.292,664.815 793.298,650.892 773.731,650.892C754.122,650.892 738.224,666.788 738.224,686.4C738.224,706.006 754.122,721.921 773.731,721.921C793.298,721.921 801.292,707.983 801.292,707.983C802.297,706.401 802.249,705.637 801.188,704.792L784.39,691.427Z" style="fill:rgb(215,84,42);fill-rule:nonzero;"/>
                </g>
                <g transform="matrix(0.502063,0,0,1.2067,1837.51,-310.226)">
                    <path d="M711.881,652.802C710.572,652.802 709.501,653.873 709.501,655.182L709.501,676.861C709.501,679.764 708.47,681.96 705.472,681.96C702.474,681.96 701.443,679.764 701.443,676.861L701.443,655.182C701.443,653.873 700.371,652.802 699.063,652.802L682.332,652.802C681.023,652.802 679.952,653.873 679.952,655.182L679.952,677.341C679.952,693.354 691.376,702.861 705.472,702.861C719.567,702.861 730.991,693.354 730.991,677.341L730.991,655.182C730.991,653.873 729.921,652.802 728.612,652.802L711.881,652.802ZM724.703,709.38C724.703,708.071 723.633,707 722.324,707L688.62,707C687.311,707 686.241,708.071 686.241,709.38L686.241,717.558C686.241,718.866 687.311,719.938 688.62,719.938L722.324,719.938C723.633,719.938 724.703,718.866 724.703,717.558L724.703,709.38Z" style="fill:rgb(252,177,21);fill-rule:nonzero;"/>
                </g>
                <g transform="matrix(0.502063,0,0,1.2067,1224.5,-173.448)">
                    <path d="M1840.51,493.746C1841.4,493.237 1844.52,492.472 1849.87,491.453C1855.22,490.434 1858.72,489.925 1860.38,489.925C1868.91,489.925 1875.89,492.759 1881.3,498.428C1886.72,504.096 1889.42,511.262 1889.42,519.924C1889.42,532.153 1883.94,540.752 1872.99,545.72C1869.42,547.248 1863.94,548.458 1856.56,549.35C1858.6,556.356 1860.38,561.643 1861.91,565.21C1866.75,575.91 1872.29,581.579 1878.53,582.216C1882.1,582.216 1886.17,581.388 1890.76,579.732C1892.29,579.222 1894.2,578.394 1896.49,577.248L1901.46,584.317C1898.4,585.591 1895.86,586.483 1893.82,586.993C1887.7,588.776 1882.16,589.668 1877.19,589.668C1869.3,589.668 1862.1,582.98 1855.6,569.604C1853.56,565.146 1851.14,558.394 1848.34,549.35L1836.88,546.675L1836.88,538.076C1842.1,540.752 1848.02,542.089 1854.65,542.089C1862.04,542.089 1868.09,540.369 1872.8,536.93C1878.15,532.981 1880.82,527.312 1880.82,519.924C1880.82,513.173 1879.17,507.886 1875.86,504.064C1872.03,499.606 1866.11,497.377 1858.09,497.377C1854.9,497.377 1851.43,497.886 1847.67,498.905C1843.91,499.924 1841.53,500.816 1840.51,501.58L1840.51,493.746Z" style="fill:rgb(170,206,0);fill-rule:nonzero;stroke:rgb(170,206,0);stroke-width:0.79px;"/>
                </g>
                <g transform="matrix(9.39419,0,0,22.5789,269.035,-7713.04)">
                    <path d="M200.221,360.452C200.221,360.367 200.152,360.297 200.067,360.297L197.356,360.297C197.271,360.297 197.201,360.367 197.201,360.452L197.201,361.552C197.201,361.637 197.271,361.707 197.356,361.707L197.71,361.707C197.795,361.707 197.865,361.777 197.865,361.862L197.865,364.508C197.865,364.593 197.934,364.663 198.019,364.663L199.403,364.663C199.488,364.663 199.558,364.593 199.558,364.508L199.558,361.862C199.558,361.777 199.628,361.707 199.713,361.707L200.067,361.707C200.152,361.707 200.221,361.637 200.221,361.552L200.221,360.452Z" style="fill:rgb(170,206,0);fill-rule:nonzero;"/>
                </g>
            </g>
            <g transform="matrix(0.567772,0,0,3.34673,1362.46,-706.355)">
                <g transform="matrix(1.19344,-0.178447,0.178447,1.19344,1123.06,-430.969)">
                    <path d="M504.175,720L526.71,720C528.02,720 529.091,718.929 529.091,717.622L529.091,655.189C529.09,653.879 528.019,652.808 526.709,652.808L504.174,652.808C502.865,652.808 501.793,653.879 501.793,655.189L501.793,671.005C488.265,671.005 477.295,681.975 477.295,695.504C477.295,709.035 488.265,720.001 501.793,720.001L504.175,720ZM497.38,695.591C497.38,692.256 500.084,689.555 503.419,689.555C506.753,689.555 509.455,692.256 509.455,695.591C509.455,698.927 506.753,701.628 503.419,701.628C500.084,701.628 497.38,698.927 497.38,695.591Z" style="fill:rgb(99,119,13);fill-rule:nonzero;"/>
                </g>
                <g transform="matrix(1.30396,0,0,1.30396,1199.35,-555.656)">
                    <path d="M446.622,650.881C432.334,650.881 420.751,662.465 420.751,676.752C420.751,691.042 432.334,702.623 446.622,702.623C460.911,702.623 472.493,691.042 472.493,676.752C472.493,662.465 460.911,650.881 446.622,650.881ZM446.622,682.786C443.291,682.786 440.589,680.086 440.589,676.751C440.589,673.423 443.291,670.72 446.622,670.72C449.953,670.72 452.655,673.423 452.655,676.751C452.655,680.086 449.953,682.786 446.622,682.786Z" style="fill:rgb(47,62,19);fill-rule:nonzero;"/>
                </g>
                <g transform="matrix(25.2321,0,0,25.2321,-3104.07,-8951.83)">
                    <path d="M190.575,366.414C189.647,366.414 188.893,367.168 188.893,368.097C188.893,369.026 189.647,369.779 190.575,369.779C191.505,369.779 192.258,369.026 192.258,368.097C192.258,367.168 191.505,366.414 190.575,366.414ZM190.575,368.489C190.359,368.489 190.183,368.313 190.183,368.097C190.183,367.88 190.359,367.704 190.575,367.704C190.792,367.704 190.968,367.88 190.968,368.097C190.968,368.313 190.792,368.489 190.575,368.489ZM191.843,370.208C191.843,370.122 191.773,370.052 191.686,370.052L189.465,370.052C189.379,370.052 189.308,370.122 189.308,370.208L189.308,370.747C189.308,370.834 189.378,370.904 189.465,370.904L191.686,370.904C191.773,370.904 191.843,370.834 191.843,370.747L191.843,370.208Z" style="fill:rgb(215,84,42);fill-rule:nonzero;"/>
                </g>
                <g transform="matrix(1.43974,0,0,1.43974,1501.59,-802.83)">
                    <path d="M98.136,734.528C99,731.36 100.08,728.48 101.376,725.888C102.672,723.296 104.184,721.04 105.912,719.12C108.696,716.048 111.888,713.768 115.488,712.28C119.088,710.792 123.192,710.048 127.8,710.048C131.832,710.048 135.768,710.696 139.608,711.992C143.448,713.288 147.24,715.232 150.984,717.824C153.672,719.648 156.24,721.784 158.688,724.232C161.136,726.68 163.512,729.44 165.816,732.512C166.584,733.856 167.424,735.176 168.336,736.472C169.248,737.768 170.184,739.088 171.144,740.432L166.536,743.888C165.672,742.736 164.856,741.536 164.088,740.288C163.32,739.04 162.552,737.792 161.784,736.544C159.672,733.664 157.464,731.048 155.16,728.696C152.856,726.344 150.504,724.256 148.104,722.432C144.648,719.936 141.096,718.04 137.448,716.744C133.8,715.448 130.152,714.8 126.504,714.8C122.952,714.8 119.784,715.376 117,716.528C114.216,717.68 111.864,719.36 109.944,721.568C108.504,723.104 107.256,724.976 106.2,727.184C105.144,729.392 104.232,731.888 103.464,734.672L101.016,743.6L113.112,743.6L111.96,748.064L99.864,748.064L84.6,805.232C84.312,806.48 84.192,807.56 84.24,808.472C84.288,809.384 84.504,810.224 84.888,810.992C85.368,811.664 86.064,812.192 86.976,812.576C87.888,812.96 88.968,813.152 90.216,813.152C91.272,813.152 92.448,812.96 93.744,812.576C95.04,812.192 96.456,811.568 97.992,810.704C98.472,810.512 99.048,810.2 99.72,809.768C100.392,809.336 101.208,808.784 102.168,808.112L102.888,813.296C102.216,813.872 101.568,814.328 100.944,814.664C100.32,815 99.768,815.264 99.288,815.456C97.752,816.032 96.12,816.488 94.392,816.824C92.664,817.16 90.888,817.328 89.064,817.328C86.376,817.328 84.216,816.872 82.584,815.96C80.952,815.048 79.848,813.584 79.272,811.568C79.08,810.992 78.984,810.2 78.984,809.192C78.984,808.184 79.032,807.008 79.128,805.664L94.536,748.064L86.616,748.064L87.768,743.6L95.688,743.6L98.136,734.528Z" style="fill:rgb(223,121,255);fill-rule:nonzero;stroke:rgb(223,121,255);stroke-width:2.08px;"/>
                </g>
            </g>
            <g transform="matrix(1.36464,0,0,3.34673,-784.298,-297.437)">
                <g transform="matrix(1,0,0,1,-9.56941,29.9263)">
                    <g transform="matrix(0.502063,0,0,1.2067,1930.29,-680.26)">
                        <path d="M611.586,655.181C611.586,653.869 610.515,652.798 609.207,652.798L567.516,652.798C566.207,652.798 565.136,653.869 565.136,655.181L565.136,672.101C565.136,673.409 566.207,674.481 567.516,674.481L572.959,674.481C574.268,674.481 575.338,675.551 575.338,676.86L575.338,717.558C575.338,718.866 576.409,719.937 577.718,719.937L599.005,719.937C600.313,719.937 601.384,718.866 601.384,717.558L601.384,676.86C601.384,675.551 602.455,674.481 603.764,674.481L609.207,674.481C610.515,674.481 611.586,673.409 611.586,672.101L611.586,655.181Z" style="fill:rgb(112,140,32);fill-rule:nonzero;stroke:rgb(112,140,32);stroke-width:2.49px;"/>
                    </g>
                    <g transform="matrix(0.502063,0,0,1.2067,2083.36,-789.831)">
                        <path d="M213.336,748.64L213.912,743.6L262.728,743.6L261.576,748.064L249.48,748.064L234.216,805.232C233.928,806.48 233.808,807.56 233.856,808.472C233.904,809.384 234.12,810.224 234.504,810.992C234.984,811.664 235.68,812.192 236.592,812.576C237.504,812.96 238.584,813.152 239.832,813.152C240.6,813.152 241.488,813.032 242.496,812.792C243.504,812.552 244.584,812.192 245.736,811.712C246.888,811.232 247.944,810.68 248.904,810.056C249.864,809.432 250.824,808.784 251.784,808.112L252.504,813.296C251.832,813.872 251.184,814.328 250.56,814.664C249.936,815 249.384,815.264 248.904,815.456C247.368,816.032 245.736,816.488 244.008,816.824C242.28,817.16 240.504,817.328 238.68,817.328C235.896,817.328 233.664,816.872 231.984,815.96C230.304,815.048 229.176,813.584 228.6,811.568C228.408,810.992 228.312,810.2 228.312,809.192C228.312,808.184 228.36,807.008 228.456,805.664L232.056,791.984C231.096,792.656 230.232,793.208 229.464,793.64C228.696,794.072 227.976,794.432 227.304,794.72C225.192,795.68 223.152,796.376 221.184,796.808C219.216,797.24 217.32,797.456 215.496,797.456C211.464,797.456 208.056,796.904 205.272,795.8C202.488,794.696 200.28,792.992 198.648,790.688C197.112,788.384 196.2,785.792 195.912,782.912C195.624,780.032 195.96,776.816 196.92,773.264C197.88,769.52 199.272,766.352 201.096,763.76C202.92,761.168 205.176,759.2 207.864,757.856C209.88,756.8 212.4,756.032 215.424,755.552C218.448,755.072 221.976,754.832 226.008,754.832C226.584,754.832 227.304,755.096 228.168,755.624C229.032,756.152 230.04,756.944 231.192,758C231.672,758.48 232.104,758.936 232.488,759.368C232.872,759.8 233.256,760.256 233.64,760.736L234.36,761.456L232.776,766.928C232.296,766.256 231.84,765.608 231.408,764.984C230.976,764.36 230.616,763.856 230.328,763.472C229.272,762.32 228.24,761.432 227.232,760.808C226.224,760.184 225.192,759.872 224.136,759.872C221.064,759.872 218.424,760.04 216.216,760.376C214.008,760.712 212.232,761.216 210.888,761.888C208.872,762.848 207.216,764.288 205.92,766.208C204.624,768.128 203.592,770.48 202.824,773.264C202.056,776.144 201.744,778.76 201.888,781.112C202.032,783.464 202.68,785.504 203.832,787.232C204.888,788.96 206.52,790.256 208.728,791.12C210.936,791.984 213.624,792.416 216.792,792.416C218.712,792.416 220.68,792.152 222.696,791.624C224.712,791.096 226.728,790.304 228.744,789.248C229.416,788.96 230.16,788.528 230.976,787.952C231.792,787.376 232.728,786.704 233.784,785.936L243.576,748.64L213.336,748.64Z" style="fill:rgb(112,140,32);fill-rule:nonzero;stroke:rgb(112,140,32);stroke-width:2.49px;"/>
                    </g>
                </g>
                <g transform="matrix(0.428168,0,0,1.0291,2094.19,-524.461)">
                    <path d="M156.681,652.746C155.371,652.746 154.297,653.819 154.297,655.13L154.297,665.59C154.297,666.901 153.225,667.974 151.914,667.974L140.895,667.974C139.584,667.974 138.511,666.901 138.511,665.59L138.511,655.13C138.511,653.819 137.439,652.746 136.127,652.746L120.447,652.746C119.136,652.746 118.063,653.819 118.063,655.13L118.063,717.614C118.063,718.925 119.136,719.998 120.447,719.998L136.127,719.998C137.439,719.998 138.511,718.925 138.511,717.614L138.511,707.151C138.511,705.84 139.584,704.768 140.895,704.768L151.914,704.768C153.225,704.768 154.297,705.84 154.297,707.151L154.297,717.614C154.297,718.925 155.371,719.998 156.681,719.998L172.362,719.998C173.673,719.998 174.745,718.925 174.745,717.614L174.745,655.13C174.745,653.819 173.673,652.746 172.362,652.746L156.681,652.746Z" style="fill:rgb(215,84,42);fill-rule:nonzero;"/>
                </g>
                <g transform="matrix(0.416061,0,0,1,2017.6,-73.5829)">
                    <path d="M215.402,210.385L217.098,203.813L313.564,203.813L311.868,210.385L294.062,210.385L271.38,294.541C270.956,296.237 270.814,297.756 270.956,299.099C271.097,300.442 271.521,301.678 272.228,302.809C272.934,303.939 273.959,304.787 275.301,305.352C276.644,305.918 278.234,306.2 280.071,306.2C281.626,306.2 283.286,305.918 285.053,305.352C286.819,304.787 288.833,303.939 291.094,302.809C292.083,302.243 293.108,301.643 294.168,301.007C295.228,300.371 296.252,299.629 297.242,298.781L298.301,306.412C297.312,307.26 296.358,307.932 295.44,308.426C294.521,308.921 293.709,309.309 293.002,309.592C290.741,310.581 288.409,311.288 286.007,311.712C283.604,312.136 281.06,312.348 278.375,312.348C274.277,312.348 270.956,311.677 268.412,310.334C265.868,308.991 264.172,306.836 263.324,303.869C263.042,303.021 262.9,301.855 262.9,300.371C262.9,298.887 262.971,297.156 263.112,295.177L273.076,257.445L251.453,257.445C250.182,257.586 249.192,257.656 248.486,257.656C247.932,257.656 247.596,257.613 247.476,257.527C247.459,257.499 247.443,257.472 247.426,257.445C247.426,257.475 247.442,257.503 247.476,257.527C248.573,259.347 249.122,261.51 249.122,264.016C249.122,266.56 248.698,269.457 247.85,272.707C247.002,275.958 245.765,278.925 244.14,281.61C242.515,284.296 240.572,286.627 238.311,288.606C235.484,291.15 232.234,293.057 228.559,294.329C224.885,295.601 220.928,296.237 216.688,296.237C210.329,296.237 204.888,295.213 200.366,293.163C195.844,291.114 192.169,288.041 189.343,283.942C187.506,281.54 186.022,278.678 184.891,275.357C183.761,272.036 183.054,268.256 182.771,264.016L181.22,247.375L189.979,239.002C190.261,242.252 190.438,245.044 190.509,247.375C190.579,249.707 190.685,251.721 190.827,253.417C191.109,254.83 191.427,256.279 191.781,257.762C192.134,259.246 192.522,260.766 192.946,262.32C192.805,264.864 193.052,267.408 193.688,269.951C194.324,272.495 195.561,275.039 197.398,277.583C199.801,281.116 202.768,283.73 206.301,285.426C209.834,287.122 213.933,287.97 218.596,287.97C221.847,287.97 224.708,287.475 227.182,286.486C229.655,285.497 231.81,284.013 233.647,282.034C235.06,280.48 236.261,278.784 237.251,276.947C238.24,275.11 239.017,273.061 239.582,270.799C239.865,269.81 240.077,268.998 240.218,268.362C240.36,267.726 240.501,267.196 240.642,266.772C240.784,266.348 240.854,265.924 240.854,265.5L240.854,264.228L232.587,242.394L240.854,242.394L244.67,250.661L264.172,250.661L274.983,250.449L285.795,210.385L215.402,210.385Z" style="fill:rgb(206,43,31);fill-rule:nonzero;stroke:rgb(206,43,31);stroke-width:3px;"/>
                </g>
            </g>
        </g>
    </g>
</svg>
