<?xml version="1.0" encoding="UTF-8" standalone="no"?>
<!DOCTYPE svg PUBLIC "-//W3C//DTD SVG 1.1//EN" "http://www.w3.org/Graphics/SVG/1.1/DTD/svg11.dtd">
<svg width="100%" height="100%" viewBox="0 0 1200 630" version="1.1" xmlns="http://www.w3.org/2000/svg" xmlns:xlink="http://www.w3.org/1999/xlink" xml:space="preserve" xmlns:serif="http://www.serif.com/" style="fill-rule:evenodd;clip-rule:evenodd;stroke-linecap:round;stroke-linejoin:round;stroke-miterlimit:1.5;">
    <rect id="Artboard1" x="0" y="0" width="1200" height="630" style="fill:none;"/>
    <g id="Artboard11" serif:id="Artboard1">
        <g transform="matrix(0.691321,0,0,0.691321,328.747,192.768)">
            <g transform="matrix(1.88743,0,0,1.53835,-822.611,-294.306)">
                <path d="M588.266,207.737L757.029,545.263L419.503,545.263L588.266,207.737Z"/>
            </g>
            <g transform="matrix(-1.19914,1.46852e-16,-2.72176e-16,-2.22249,863.406,797.055)">
                <path d="M416.184,113.637L532.128,113.637L611.3,242.452L480.102,471.822L345.316,242.452L416.184,113.637Z" style="fill:url(#_Linear1);"/>
            </g>
            <g id="dog-body" transform="matrix(2.36234,0,0,2.36234,-542.492,-792.967)">
                <path d="M321.874,423.601C325.064,418.973 327.16,422.927 327.084,412.778C327.018,404.093 330.149,389.224 335.276,373.595C339.781,359.864 362.348,357.899 369.227,373.595C376.105,389.291 378.068,404.984 378.38,412.778C378.408,413.476 378.722,414.037 379.034,414.482C383.7,421.148 404.45,476.375 385.117,464.375C383.974,463.665 383.072,463.245 382.375,463.098C376.624,461.884 384.921,479.291 387.725,506.096C389.733,525.295 387.262,557.247 385.117,567.531C384.722,569.424 384.803,571.109 385.117,571.299C386.537,572.156 391.778,559.69 395.747,555.442C404.694,545.868 408.838,541.978 424.926,536.375C456.536,525.366 453.478,513.637 459.47,507.342C464.93,501.606 479.883,495.632 484.84,506.096C487.216,511.112 479.868,518.374 481.117,518.375C511.404,518.385 500.357,547.515 469.564,555.442C469.564,555.442 473.499,554.347 475.688,555.442C508.6,571.902 451.8,581.944 443.879,574.375C443.879,574.375 443.49,568.844 443.879,577.613C444.486,591.323 424.676,595.667 400.426,588.292C399.614,588.045 398.727,587.304 397.993,587.682C389.45,592.087 382.488,589.822 378.38,587.682C376.036,586.461 380.593,579.213 380.149,580.208C378.396,584.142 356.587,587.669 345.017,581.568C342.42,580.198 341.264,578.913 339.117,580.208C334.96,582.715 327.033,578.862 325.596,577.613C324.814,576.934 319.994,572.557 325.596,567.531C326.189,566.999 327.168,566.709 327.084,565.854C326.129,556.206 322.22,544.214 321.874,541.059C321.634,538.874 313.188,523.087 324.641,478.756C326.373,472.05 305.699,482.755 313.784,446.375C316.45,434.375 318.456,428.56 321.874,423.601Z" style="fill:url(#_Linear2);stroke:rgb(205,163,213);stroke-width:3.06px;"/>
            </g>
            <g id="collar" transform="matrix(2.36234,0,0,2.36234,-542.492,-792.967)">
                <path d="M342.529,449.138L367.261,449.138" style="fill:none;stroke:rgb(255,188,0);stroke-width:4.59px;"/>
            </g>
            <g id="right-ear" transform="matrix(2.65031,0,0,2.52492,-649.936,-864.721)">
                <path d="M371.733,458.93C369.291,455.769 368.833,453.151 367.733,445.761C366.791,439.433 370.241,430.236 371.733,424.761C372.858,420.633 375.477,414.891 376.685,412.917C377.085,412.264 377.85,412.917 377.85,412.917C387.301,432.415 395.476,457.787 392.24,465.139C391.248,467.393 387.316,472.103 382.676,469.013C380.704,467.7 374.099,461.993 371.733,458.93Z" style="fill:url(#_Linear3);stroke:rgb(205,163,213);stroke-width:2.79px;"/>
            </g>
            <g id="left-ear" transform="matrix(2.36234,0,0,2.36234,-542.492,-792.967)">
                <path d="M322.856,476.051C325.262,477.126 327.159,476.948 328.988,476.051C334.312,473.439 338.452,465.93 341.736,457.172C344.865,448.828 337.826,434.74 336.308,433.095C332.122,428.557 330.856,417.394 326.415,418.755C322.228,420.038 314.986,438.997 313.821,444.04C311.311,454.906 308.005,474.674 322.856,476.051Z" style="fill:url(#_Linear4);stroke:rgb(205,163,213);stroke-width:3.06px;"/>
            </g>
            <g transform="matrix(2.36234,0,0,2.36234,-557.098,-805.884)">
                <ellipse cx="361.078" cy="460.487" rx="6.183" ry="5.881" style="fill:white;"/>
            </g>
            <g id="nose" transform="matrix(2.36234,0,0,1.18117,-533.886,-360.089)">
                <ellipse cx="348.712" cy="371.06" rx="6.183" ry="5" style="fill:rgb(135,140,189);"/>
            </g>
            <g id="r-eye" transform="matrix(1.77312,0,0,1.77312,-269.386,-557.637)">
                <ellipse cx="338.662" cy="402.06" rx="3.867" ry="2.667" style="fill:rgb(41,3,75);"/>
            </g>
            <g id="l-eye" transform="matrix(1.77312,0,0,1.77312,-345.63,-557.637)">
                <ellipse cx="338.662" cy="402.06" rx="3.867" ry="2.667" style="fill:rgb(41,3,75);"/>
            </g>
        </g>
    </g>
    <defs>
        <linearGradient id="_Linear1" x1="0" y1="0" x2="1" y2="0" gradientUnits="userSpaceOnUse" gradientTransform="matrix(1.79423,-351.81,393.878,0.584778,478.308,465.447)"><stop offset="0" style="stop-color:white;stop-opacity:0"/><stop offset="0.17" style="stop-color:white;stop-opacity:0.25"/><stop offset="0.22" style="stop-color:white;stop-opacity:0.5"/><stop offset="0.28" style="stop-color:rgb(251,249,252);stop-opacity:0.75"/><stop offset="0.32" style="stop-color:rgb(246,238,247);stop-opacity:1"/><stop offset="0.6" style="stop-color:rgb(205,163,213);stop-opacity:1"/><stop offset="1" style="stop-color:rgb(205,163,188);stop-opacity:1"/></linearGradient>
        <linearGradient id="_Linear2" x1="0" y1="0" x2="1" y2="0" gradientUnits="userSpaceOnUse" gradientTransform="matrix(187.375,0,0,234.771,311.638,474.465)"><stop offset="0" style="stop-color:rgb(207,231,255);stop-opacity:1"/><stop offset="1" style="stop-color:rgb(162,217,255);stop-opacity:1"/></linearGradient>
        <linearGradient id="_Linear3" x1="0" y1="0" x2="1" y2="0" gradientUnits="userSpaceOnUse" gradientTransform="matrix(187.375,0,0,234.771,311.638,474.465)"><stop offset="0" style="stop-color:rgb(184,219,255);stop-opacity:1"/><stop offset="1" style="stop-color:rgb(162,217,255);stop-opacity:1"/></linearGradient>
        <linearGradient id="_Linear4" x1="0" y1="0" x2="1" y2="0" gradientUnits="userSpaceOnUse" gradientTransform="matrix(187.375,0,0,234.771,311.638,474.465)"><stop offset="0" style="stop-color:rgb(184,219,255);stop-opacity:1"/><stop offset="1" style="stop-color:rgb(162,217,255);stop-opacity:1"/></linearGradient>
    </defs>
</svg>
