
<svg width="100%" height="100%" viewBox="0 0 591 591" version="1.1" xmlns="http://www.w3.org/2000/svg" style="fill-rule:evenodd;clip-rule:evenodd;stroke-linejoin:round;stroke-miterlimit:2;">
    <g transform="matrix(1,0,0,1,-1615,0)">
        <g id="tail">
        </g>
        <g id="mouth">
        </g>
        <g id="left-eye">
        </g>
        <g id="right-eye">
        </g>
        <rect id="Artboard3" x="1615" y="0" width="591" height="591" style="fill:none;"/>
        <g id="Artboard31" serif:id="Artboard3">
            <path id="outline" d="M1910.5,0C2073.59,0 2206,132.409 2206,295.5C2206,458.591 2073.59,591 1910.5,591C1747.41,591 1615,458.591 1615,295.5C1615,132.409 1747.41,0 1910.5,0ZM1910.5,16C2064.76,16 2190,141.24 2190,295.5C2190,449.76 2064.76,575 1910.5,575C1756.24,575 1631,449.76 1631,295.5C1631,141.24 1756.24,16 1910.5,16Z"/>
            <path id="fart" d="M1812.25,241C1797.33,227.076 1788,207.244 1788,185.25C1788,143.166 1822.17,109 1864.25,109C1871.52,109 1878.56,110.02 1885.22,111.926C1901.34,93.007 1925.34,81 1952.12,81C2000.62,81 2040,120.375 2040,168.875C2040,169.893 2039.98,170.908 2039.95,171.914C2048.38,169.926 2057.16,168.875 2066.19,168.875C2129.14,168.875 2180.25,219.985 2180.25,282.938C2180.25,345.89 2129.14,397 2066.19,397C2065.6,397 2065.01,396.995 2064.42,396.986C2050.73,437.666 2012.27,467 1967,467C1936.08,467 1908.33,453.31 1889.48,431.663C1873.46,441.699 1854.53,447.5 1834.25,447.5C1776.71,447.5 1730,400.787 1730,343.25C1730,339.107 1730.24,335.021 1730.71,331L1676,331L1676,315L1733.88,315C1735.79,308.193 1738.38,301.667 1741.57,295.5L1676,295.5L1676,274L1756.35,274C1762.87,266.667 1770.42,260.26 1778.76,255L1676,255L1676,241L1812.25,241Z"/>
        </g>
    </g>
</svg>
