
<svg width="100%" height="100%" viewBox="0 0 755 428" version="1.1" xmlns="http://www.w3.org/2000/svg" style="fill-rule:evenodd;clip-rule:evenodd;stroke-linecap:round;stroke-linejoin:round;stroke-miterlimit:1.5;">
    <g id="tail" transform="matrix(0.971741,-0.209058,0.247527,1.15055,271.101,121.319)">
        <g id="t-pink" transform="matrix(0.711491,0,0,0.504369,-205.269,-70.616)">
            <path d="M851.581,567.317C855.108,591.413 854.572,614.342 839.335,612.802C825.535,611.408 818.223,590.141 813.149,567.317L851.581,567.317ZM808.334,567.317C808.987,582.85 806.936,596.612 796.453,596.69C783.379,596.786 769.793,584.832 758.088,567.317L808.334,567.317ZM890.82,567.317C890.526,576.799 887.652,584.415 880.76,587.961C869.436,593.787 860.724,582.716 854.199,567.317L890.82,567.317Z" style="fill:rgb(218,47,255);"/>
        </g>
        <g id="t-magenta" transform="matrix(0.711491,0,0,0.504369,-205.269,-70.616)">
            <path d="M839.402,514.776C841.117,521.727 844.266,537.948 849.184,553.515C850.082,558.049 850.906,562.703 851.581,567.317L813.149,567.317C809.659,551.617 807.228,535.178 804.472,523.97C802.351,525.16 807.508,547.657 808.334,567.317L758.088,567.317C748.169,552.476 739.603,533.64 733.853,514.776L839.402,514.776ZM877.534,514.776C884.687,530.698 891.309,551.578 890.82,567.317L854.199,567.317C852.356,562.967 850.687,558.271 849.184,553.515C845.382,534.315 840.245,517.269 839.436,514.776L877.534,514.776ZM908.498,514.776C911.72,526.561 911.853,535.777 907.462,540.479C904.112,544.066 891.891,547.197 889.489,538.038C886.556,530.415 882.221,522.184 877.898,514.776L908.498,514.776Z" style="fill:rgb(186,9,255);"/>
        </g>
        <g id="t-dark-blue" transform="matrix(0.711491,0,0,0.504369,-205.269,-70.616)">
            <path d="M887.476,467.192C897.093,484.476 904.81,501.297 908.475,514.776L877.886,514.776L876.583,512.547L876.235,511.973C871.208,501.261 866.108,493.283 863.196,491.484C861.327,489.335 868.466,498.998 876.235,511.973L877.07,513.751L877.525,514.776L839.427,514.776L839.335,514.505L839.399,514.776L733.874,514.776C728.751,498.018 731.325,479.915 735.828,466.938L887.476,467.192Z" style="fill:rgb(43,34,255);"/>
        </g>
        <g id="t-blue" transform="matrix(0.711491,0,0,0.504369,-205.269,-70.616)">
            <path d="M855.642,417.625C866.74,432.763 878.026,450.199 887.48,467.192L735.828,466.938C740.194,459.271 747.205,430.458 748.43,419.075L855.642,417.625Z" style="fill:rgb(50,185,255);"/>
        </g>
        <g id="t-green" transform="matrix(0.711491,0,0,0.504369,-205.269,-70.616)">
            <path d="M824.69,367.067C827.335,378.106 831.76,388.079 839.335,396.922C844.554,403.014 850.077,410.034 855.642,417.625L748.43,419.075C752.093,396.164 752.945,386.74 754.081,365.857L824.69,367.067Z" style="fill:rgb(171,224,0);"/>
        </g>
        <g id="t-yellow" transform="matrix(0.711491,0,0,0.504369,-205.269,-70.616)">
            <path d="M820.356,317.5C820.801,335.814 821.172,352.385 824.69,367.067L754.081,365.857C754.518,348.795 753.873,338.724 753.086,321.962L820.356,317.5Z" style="fill:rgb(255,227,8);"/>
        </g>
        <g id="t-orange" transform="matrix(0.711491,0,0,0.504369,-205.269,-70.616)">
            <path d="M817.057,266.942C819.543,284.999 819.976,301.882 820.356,317.5L753.086,321.962C752.313,305.486 749.053,286.872 743.864,269.573L817.057,266.942Z" style="fill:rgb(255,131,0);"/>
        </g>
        <g id="t-red" transform="matrix(0.711491,0,0,0.504369,-205.269,-70.616)">
            <path d="M793.451,217.307C804.103,227.78 811.672,238.507 813.911,248.951C815.218,255.048 816.241,261.024 817.048,266.874L743.864,269.573C742.087,263.655 740.213,252.683 737.88,246.647C733.497,235.15 731.313,225.146 726.006,215.535L793.451,217.307Z" style="fill:rgb(210,10,0);"/>
        </g>
        <g id="t-hotpink" transform="matrix(0.711491,0,0,0.504369,-205.269,-70.616)">
            <path d="M669.047,134.831C669.174,134.882 669.475,135.042 669.934,135.311C679.654,139.842 753.907,178.423 793.451,217.307L726.006,215.535C698.232,165.238 676.278,139.042 669.934,135.311C669.354,135.041 669.031,134.881 668.991,134.836L668.987,134.831L669.047,134.831Z" style="fill:rgb(210,19,107);"/>
        </g>
    </g>
    <g id="body" transform="matrix(1,0,0,1,-116,-73)">
        <path d="M356.046,211.789C357.642,203.264 357.409,187.412 352.048,178.95C385.854,145.751 448.909,121.875 539.5,116.211C677.674,107.571 726.167,198.057 736,256.5C748.567,331.19 718.322,369.442 689.9,425.021C689.835,425.149 686.156,429.907 685,429.641C684.712,429.574 685.329,429.979 686,430.641C694.208,438.734 696.733,462.011 685,467.513C664.068,477.327 656.884,447.846 653,441.767C652.001,440.203 651,437.641 651,437.641C651,437.641 652.508,441.738 653,441.767C651.436,441.509 588.243,467.035 586.545,467.513C586.481,470.123 586.545,464.625 586.545,467.513C586.545,479.725 588.009,487.712 579.813,490.251C570.487,493.14 565.892,481.607 567.787,470.925C557.116,472.78 451.904,471.264 379.746,418.909C376.606,416.631 385.388,407.95 385.388,407.95C385.388,407.95 382.06,412.724 379.746,414.529C368.753,423.103 357.292,436.257 352.048,435.803C339.623,434.729 333.397,423.098 345.359,411.95C347.175,410.257 357.58,402.955 356.046,400.655C344.277,391.909 348.18,382.561 338.062,386.513C313.25,396.204 297.187,402.204 294,386.513C292.151,377.409 327.162,375.553 327.368,369.22C323.08,349.482 329.23,376.697 317.527,330.504C330.834,329.51 338.633,304.65 338.062,301.435C335.858,320.094 314.544,332.614 312.133,334.007C293.056,345.026 268.003,348 244.5,348C179.65,348 127,292.35 127,227.5C127,190.62 144.028,157.685 170.643,136.138C170.227,132.5 170,128.582 170,124.5C170,105.459 174.929,90 181,90C186.844,90 191.63,104.324 191.979,122.38C207.79,114.458 225.629,110 244.5,110C257.71,110 270.414,112.185 282.265,116.211C283.424,98.384 288.241,85 294,85C300.623,85 306,102.699 306,124.5C306,125.464 305.989,126.419 305.969,127.364C323.623,138.232 359.191,161.476 356.046,211.789Z" style="fill:rgb(235,235,235);stroke:black;stroke-width:3px;"/>
    </g>
    <g id="mouth" transform="matrix(1,0,0,1,-116,-73)">
        <path id="lips" d="M199,239L237,237" style="fill:none;stroke:black;stroke-width:3px;"/>
        <g id="tongue" transform="matrix(1,0,0,1,-16,-39)">
            <path d="M224,278C224,278.205 244,276.805 244,277C244,282.795 243.004,291.417 234,292C227.063,292.449 224,283.795 224,278Z" style="fill:rgb(210,19,107);stroke:black;stroke-width:3px;"/>
        </g>
        <path id="tongue-line" d="M218,238L218,245.499" style="fill:none;stroke:black;stroke-width:3px;"/>
        <g id="r-cheek" transform="matrix(1,0,0,1,-40,-40)">
            <path d="M285.779,294.075C280.465,290.263 277,284.033 277,277C277,270.707 279.774,265.057 284.165,261.206" style="fill:none;stroke:black;stroke-width:3px;"/>
        </g>
        <g id="l-cheek" transform="matrix(0.708333,0,0,0.638421,34.7112,57.2269)">
            <path d="M224.093,264.027C227.882,268.271 230.186,273.869 230.186,280C230.186,287.82 226.439,294.771 220.643,299.154" style="fill:none;stroke:black;stroke-width:4.45px;"/>
        </g>
    </g>
    <g id="left-eye" transform="matrix(1,0,0,1,-116,-73)">
        <g id="l-iris" transform="matrix(0.942222,0,0,0.965737,8.83997,0.619072)">
            <circle cx="182.186" cy="193.186" r="29.186" style="fill:white;stroke:black;stroke-width:3.14px;"/>
        </g>
        <g id="l-pupil" transform="matrix(0.939032,0,0,0.939032,6.77361,4.0696)">
            <circle cx="186.603" cy="196.603" r="24.603"/>
        </g>
    </g>
    <g id="right-eye" transform="matrix(1,0,0,1,-116,-73)">
        <g id="r-iris" transform="matrix(0.880081,0,0,0.965737,29.1404,0.619072)">
            <circle cx="272.186" cy="193.186" r="29.186" style="fill:white;stroke:black;stroke-width:3.25px;"/>
        </g>
        <g id="r-pupil" transform="matrix(0.939032,0,0,0.939032,96.0431,2.5696)">
            <circle cx="186.603" cy="196.603" r="24.603"/>
        </g>
    </g>
    <g id="hair" transform="matrix(1,0,0,1,-116,-73)">
        <path d="M224.997,111.018C225.251,111.437 248.707,106.94 248.171,110.966C249.364,110.466 257.801,108.045 276.166,115C274.166,127.142 272.812,141 253.218,143C247.911,143.542 246.877,126.136 248.18,110.966C246.653,121.882 241.927,146.178 230.218,149C223.811,150.544 221.003,136.157 224.993,111.045C222.988,123.183 217.985,140.14 212.052,143C195.457,151 197.33,123.344 201.103,119C202.26,117.668 224.464,110.869 224.999,111L225,110.998L225,111L225,111L224.997,111.018ZM248.166,111.004L248.18,110.998C248.068,111.707 247.96,112.402 247.857,113.085C247.955,112.364 248.056,111.669 248.166,111.004Z" style="fill:url(#_Linear1);stroke:black;stroke-width:3px;"/>
    </g>
    <g id="Artboard1" transform="matrix(5.94488,0,0,7.92593,0,0)">
        <rect x="0" y="0" width="127" height="54" style="fill:none;"/>
    </g>
    <defs>
        <linearGradient id="_Linear1" x1="0" y1="0" x2="1" y2="0" gradientUnits="userSpaceOnUse" gradientTransform="matrix(85,-3.8043,3.8043,85,194,133)"><stop offset="0" style="stop-color:rgb(210,19,107);stop-opacity:1"/><stop offset="0.13" style="stop-color:rgb(210,10,0);stop-opacity:1"/><stop offset="0.25" style="stop-color:rgb(255,131,0);stop-opacity:1"/><stop offset="0.38" style="stop-color:rgb(255,227,8);stop-opacity:1"/><stop offset="0.5" style="stop-color:rgb(171,224,0);stop-opacity:1"/><stop offset="0.63" style="stop-color:rgb(50,185,255);stop-opacity:1"/><stop offset="0.75" style="stop-color:rgb(43,34,255);stop-opacity:1"/><stop offset="0.88" style="stop-color:rgb(186,9,255);stop-opacity:1"/><stop offset="1" style="stop-color:rgb(218,47,255);stop-opacity:1"/></linearGradient>
    </defs>
</svg>
