
<svg width="100%" height="100%" viewBox="0 0 591 591" xmlns="http://www.w3.org/2000/svg" style="fill-rule:evenodd;clip-rule:evenodd;stroke-linejoin:round;stroke-miterlimit:2;">
    <g transform="matrix(1,0,0,1,-2256,0)">
        <g id="tail">
        </g>
        <g id="mouth">
        </g>
        <g id="left-eye">
        </g>
        <g id="right-eye">
        </g>
        <rect id="Artboard4" x="2256" y="0" width="591" height="591" style="fill:none;"/>
        <g id="Artboard41" serif:id="Artboard4">
            <path id="swirl" d="M2326.98,103.455C2381.21,40.141 2461.7,0 2551.5,0C2691.37,0 2808.67,97.384 2839.24,227.998C2844.18,250.422 2846.84,273.671 2846.99,297.513C2845.92,458.961 2715.08,589.844 2553.66,590.992C2413.36,589.923 2299.95,475.845 2299.95,335.276C2299.95,211.306 2400.44,110.808 2524.41,110.808C2633.23,110.808 2721.45,199.022 2721.45,307.841C2721.45,403.36 2644.01,480.793 2548.5,480.793C2464.65,480.793 2396.68,412.824 2396.68,328.98C2396.68,255.383 2456.34,195.721 2529.94,195.721C2594.54,195.721 2646.91,248.091 2646.91,312.693C2646.91,369.398 2600.94,415.367 2544.24,415.367C2494.46,415.367 2454.11,375.017 2454.11,325.242C2454.11,281.55 2489.53,246.132 2533.22,246.131C2571.57,246.132 2602.66,277.221 2602.66,315.573C2602.66,349.237 2575.37,376.527 2541.71,376.527C2512.16,376.527 2488.2,352.572 2488.2,323.023C2488.2,297.085 2509.23,276.058 2535.17,276.058C2557.94,276.058 2576.39,294.515 2576.39,317.282C2576.39,337.267 2560.19,353.468 2540.21,353.468C2522.67,353.468 2508.45,339.248 2508.45,321.705C2508.45,306.307 2520.93,293.824 2536.33,293.824C2549.84,293.824 2560.8,304.781 2560.8,318.298C2560.8,330.162 2551.18,339.78 2539.32,339.78L2539.15,336.493C2548.76,336.493 2556.54,328.706 2556.54,319.101C2556.54,308.158 2547.67,299.287 2536.73,299.287C2524.26,299.287 2514.16,309.393 2514.16,321.86C2514.16,336.062 2525.67,347.576 2539.87,347.576C2556.05,347.576 2569.17,334.459 2569.17,318.279C2569.17,299.846 2554.23,284.904 2535.79,284.904C2514.79,284.904 2497.77,301.927 2497.77,322.926C2497.77,346.85 2517.16,366.244 2541.09,366.244C2568.34,366.244 2590.44,344.15 2590.44,316.895C2590.44,285.845 2565.27,260.675 2534.22,260.675C2498.84,260.675 2470.17,289.35 2470.17,324.723C2470.17,365.021 2502.84,397.689 2543.14,397.689C2589.04,397.689 2626.26,360.473 2626.26,314.563C2626.26,262.261 2583.86,219.862 2531.56,219.862C2471.98,219.862 2423.67,268.165 2423.67,327.749C2423.67,395.63 2478.7,450.659 2546.58,450.659C2623.91,450.659 2686.61,387.968 2686.61,310.635C2686.61,222.535 2615.19,151.115 2527.09,151.115C2426.72,151.115 2345.35,232.479 2345.35,332.847C2345.35,447.19 2438.05,539.883 2552.39,539.883C2682.65,539.883 2788.25,434.283 2788.25,304.019C2788.25,155.617 2667.95,35.313 2519.55,35.313C2446.58,35.313 2379.57,60.844 2326.98,103.455Z"/>
            <g id="outline" transform="matrix(1,0,0,1,641,0)">
                <path d="M1910.5,0C2073.59,0 2206,132.409 2206,295.5C2206,458.591 2073.59,591 1910.5,591C1747.41,591 1615,458.591 1615,295.5C1615,132.409 1747.41,0 1910.5,0ZM1910.5,16C2064.76,16 2190,141.24 2190,295.5C2190,449.76 2064.76,575 1910.5,575C1756.24,575 1631,449.76 1631,295.5C1631,141.24 1756.24,16 1910.5,16Z"/>
            </g>
        </g>
    </g>
</svg>
