
<svg width="100%" height="100%" viewBox="0 0 801 446"  xmlns="http://www.w3.org/2000/svg" style="fill-rule:evenodd;clip-rule:evenodd;stroke-linejoin:round;stroke-miterlimit:2;">
    <g transform="matrix(1,0,0,1,-3572,-45)">
        <g class="faint" transform="matrix(1.35533,0,0,0.754653,-1223.16,45)">
            <rect x="3538" y="0" width="591" height="591" style="fill:none;"/>
            <g class="l-pupil" transform="matrix(0.671078,0,0,1.20523,1179.96,-19.8538)">
                <path d="M3721.81,22.299L3721.72,22.298C3715,22.298 3709.38,37.904 3708.03,58.689C3702.87,56.934 3697.56,55.479 3692.14,54.345C3682.89,51.704 3676.56,51.421 3672.73,51.722C3671.08,51.618 3669.42,51.543 3667.76,51.498C3663.99,48.817 3641.53,53.077 3641.26,52.634L3641.26,52.613L3641.26,52.611L3641.26,52.613C3641.03,52.556 3637.26,53.631 3632.56,55.08C3622.12,57.536 3612.13,61.187 3602.76,65.882C3602.36,44.83 3596.78,28.128 3589.96,28.128C3582.88,28.128 3577.14,46.153 3577.14,68.354C3577.14,73.114 3577.4,77.682 3577.89,81.923C3546.85,107.047 3527,145.447 3527,188.448C3527,264.061 3588.39,328.946 3664,328.946C3691.4,328.946 3720.62,325.479 3742.86,312.631C3743.62,312.189 3746.02,310.789 3749.15,308.546C3749.18,308.524 3749.18,308.653 3749.16,308.592L3749.15,308.546C3749.15,308.568 3749.16,308.583 3749.16,308.592C3762.79,362.387 3755.62,330.681 3760.62,353.688C3760.38,361.073 3719.56,363.236 3721.72,373.851C3725.43,392.146 3744.16,385.15 3773.09,373.851C3784.89,369.243 3780.34,380.143 3794.06,390.34C3795.85,393.022 3783.72,401.536 3781.6,403.509C3767.65,416.508 3774.91,430.069 3789.4,431.322C3795.12,431.816 3807.18,418.43 3819.2,408.517C3819.57,409.732 3821.46,411.453 3821.69,411.624C3821.98,411.834 3822.27,412.043 3822.56,412.252C3906.67,472.68 4028.54,474.427 4040.94,472.272C4038.73,484.727 4044.09,498.174 4054.96,494.806C4064.5,491.852 4062.82,482.57 4062.81,468.377L4062.81,468.294C4062.74,471.337 4062.81,464.927 4062.81,468.294C4064.79,467.738 4138.16,438.099 4140.28,438.274L4140.27,438.271C4139.67,438.098 4137.96,433.464 4137.96,433.464C4137.96,433.464 4139.13,436.452 4140.3,438.275C4144.82,445.362 4153.2,479.736 4177.61,468.294C4191.29,461.879 4188.34,434.738 4178.77,425.302C4177.99,424.531 4177.27,424.059 4177.61,424.136C4178.95,424.447 4183.24,418.899 4183.32,418.75C4206.66,373.112 4231.05,337.495 4238.32,290L4238.46,293.384C4236.72,302.946 4237.28,315.641 4243.85,326.091L4243.83,326.095C4251.2,337.838 4260.82,349.075 4270.95,357.393L4271.01,357.442C4278.61,363.669 4287.93,369.754 4297.96,370.961C4308.93,372.281 4314.23,367.034 4313.06,356.32C4312.78,353.774 4312.2,351.263 4311.53,348.788L4311.52,348.728C4307.99,335.568 4300.56,321.241 4302.1,320.068C4305.93,327.146 4310.27,337.791 4315.34,347.775L4315.4,347.892C4319.77,356.474 4325.69,368.338 4335.06,372.687C4350.56,379.875 4353.08,363.815 4350.31,352.763C4349.32,348.822 4347.9,344.993 4346.38,341.227C4345.17,338.222 4343.82,335.216 4342.44,332.304C4336.64,323.291 4331.99,313.629 4329.44,308.784C4329.1,308.141 4328.91,307.79 4328.91,307.79C4329.08,308.093 4329.26,308.425 4329.44,308.784C4334.81,318.751 4345.51,336.619 4353.78,346.034C4361.34,354.643 4367.89,362.139 4376.42,351.558C4388.55,336.502 4370.69,324.114 4361.53,311.039C4356.06,303.228 4336.61,282.871 4344.71,287.903C4351.32,289.616 4366.2,311.193 4369.68,315.842C4373.35,322.334 4384.55,315.753 4387.52,313.377C4392.18,309.655 4385.65,297.593 4384.61,295.807L4384.6,295.811C4379.68,287.326 4371.01,277.283 4360.74,267.256L4360.75,267.256C4350.65,257.398 4339.02,247.558 4327.86,239.24C4315.82,230.258 4302.88,224.13 4295.55,210.4C4290.66,201.222 4287.95,190.276 4284.99,178.19L4284.85,177.614C4282.27,167.113 4279.46,155.765 4274.83,143.978C4271.5,137.3 4258.68,119.727 4248.57,114.489C4211.03,95.038 4160.31,83.927 4139.3,78.431C4133.78,76.99 4128.49,78.431 4128.49,78.431C4095.29,61.513 4063.81,55.196 4007.96,58.689C3902.33,65.294 3828.81,93.131 3789.4,131.841C3789.41,131.789 3789.38,131.773 3789.39,131.804L3789.39,131.82C3778.41,98.566 3751.18,81.24 3735.67,71.693C3735.7,70.591 3735.71,69.477 3735.71,68.354C3735.71,43.034 3729.49,22.459 3721.81,22.299ZM3653.79,200.87L3653.8,202.103C3654.29,210.155 3658.44,216.223 3664.62,220.652C3665.29,221.135 3666.23,220.981 3666.71,220.308C3667.19,219.635 3667.04,218.697 3666.37,218.215C3660.55,214.044 3656.76,207.228 3656.76,199.534C3656.76,199.528 3656.76,199.523 3656.76,199.518C3656.76,192.633 3659.79,186.451 3664.6,182.238C3665.22,181.692 3665.28,180.743 3664.74,180.121C3664.19,179.498 3663.24,179.436 3662.62,179.982C3657.52,184.453 3654.18,190.887 3653.79,198.099L3610.89,200.358C3610.97,199.694 3611,199.022 3611,198.341C3611,193.373 3608.94,188.834 3605.54,185.395C3604.95,184.807 3604,184.803 3603.41,185.385C3602.83,185.968 3602.82,186.918 3603.41,187.506C3606.26,190.386 3608,194.18 3608,198.341C3608,203.661 3605.15,208.377 3600.78,211.359C3600.09,211.825 3599.92,212.759 3600.38,213.443C3600.85,214.127 3601.78,214.304 3602.47,213.838C3606.28,211.238 3609.09,207.514 3610.32,203.219L3610.32,203.219C3610.33,203.224 3610.35,203.229 3610.36,203.234L3610.38,203.172L3653.79,200.87ZM3644.74,202.352C3644.52,208.982 3642.77,217.554 3633.1,218.18C3625.53,218.671 3621.91,210.243 3621.49,203.585L3631.6,203.048L3631.6,209.434C3631.6,210.262 3632.28,210.934 3633.1,210.934C3633.93,210.934 3634.6,210.262 3634.6,209.434L3634.6,202.889L3644.74,202.352ZM3589.38,108.579C3607.08,108.579 3621.44,123.305 3621.44,141.444C3621.44,159.582 3607.08,174.308 3589.38,174.308C3571.68,174.308 3557.32,159.582 3557.32,141.444C3557.32,123.305 3571.68,108.579 3589.38,108.579ZM3692.2,108.579C3708.73,108.579 3722.15,123.305 3722.15,141.444C3722.15,159.582 3708.73,174.308 3692.2,174.308C3675.67,174.308 3662.25,159.582 3662.25,141.444C3662.25,123.305 3675.67,108.579 3692.2,108.579ZM3591.13,116.255C3605.99,116.255 3618.07,128.325 3618.07,143.193C3618.07,158.06 3605.99,170.13 3591.13,170.13C3576.26,170.13 3564.19,158.06 3564.19,143.193C3564.19,128.325 3576.26,116.255 3591.13,116.255ZM3695.21,114.506C3710.08,114.506 3722.15,126.576 3722.15,141.444C3722.15,156.311 3710.08,168.381 3695.21,168.381C3680.35,168.381 3668.28,156.311 3668.28,141.444C3668.28,126.576 3680.35,114.506 3695.21,114.506ZM3667.73,55.563L3667.73,55.522L3667.73,55.523L3667.68,55.832C3665.93,68.158 3660.64,94.757 3647.72,97.873C3640.58,99.594 3637.45,83.561 3641.89,55.575C3639.66,69.102 3634.08,87.999 3627.47,91.187C3608.98,100.102 3611.07,69.281 3615.27,64.44C3616.56,62.955 3641.3,55.378 3641.9,55.524L3641.9,55.522L3641.9,55.525L3641.9,55.545C3642.18,56.012 3668.32,51 3667.72,55.487C3669.05,54.93 3678.45,52.231 3698.92,59.982C3696.69,73.514 3695.18,88.958 3673.35,91.187C3667.44,91.789 3666.28,72.45 3667.73,55.563ZM3667.73,55.523L3667.73,55.524L3667.68,55.832C3667.58,56.515 3667.47,57.187 3667.37,57.848C3667.48,57.044 3667.6,56.27 3667.72,55.529L3667.73,55.524L3667.73,55.487L3667.73,55.523ZM3641.15,53.348C3641.15,53.349 3641.14,53.352 3641.14,53.35C3641.18,53.121 3641.03,52.704 3641.26,52.666C3641.48,52.627 3641.18,53.121 3641.15,53.348Z"/>
            </g>
        </g>
    </g>
</svg>
