
<svg width="100%" height="100%" viewBox="0 0 591 591"  xmlns="http://www.w3.org/2000/svg"style="fill-rule:evenodd;clip-rule:evenodd;stroke-linecap:round;stroke-linejoin:round;stroke-miterlimit:1.5;">
    <g transform="matrix(1,0,0,1,-974,0)">
        <g id="tail">
        </g>
        <g id="mouth">
        </g>
        <g id="left-eye">
        </g>
        <g id="right-eye">
        </g>
        <g id="Artboard2" transform="matrix(0.942584,0,0,0.942584,89.8565,262.038)">
            <rect x="938" y="-278" width="627" height="627" style="fill:none;"/>
            <clipPath id="_clip1">
                <rect x="938" y="-278" width="627" height="627"/>
            </clipPath>
            <g clip-path="url(#_clip1)">
                <g id="logo-head" transform="matrix(1,0,0,1,50.9239,106.091)">
                    <g id="head" transform="matrix(1.06091,0,0,1.06091,-150.497,-384.091)">
                        <path d="M1030.21,461.515C1022.92,436.278 1022,419.784 1022,392.562C1022,305.198 1062.34,227.181 1125.38,176.138C1124.4,167.521 1123.86,158.24 1123.86,148.57C1123.86,103.464 1135.54,66.844 1149.92,66.844C1163.76,66.844 1175.1,100.776 1175.93,143.548C1213.38,124.783 1255.64,114.221 1300.34,114.221C1331.63,114.221 1361.73,119.397 1389.8,128.934C1392.55,86.706 1403.96,55 1417.6,55C1433.29,55 1446.03,96.927 1446.03,148.57C1446.03,150.852 1446,153.116 1445.95,155.353C1474.71,173.059 1535.84,217.398 1568.79,282.127C1568.93,285.898 1569,289.691 1569,293.5C1569,457.695 1435.69,591 1271.5,591C1174.05,591 1084.48,534.001 1030.21,461.515Z" style="fill:rgb(235,235,235);"/>
                        <path d="M1030.21,461.515C1022.92,436.278 1022,419.784 1022,392.562C1022,305.198 1062.34,227.181 1125.38,176.138C1124.4,167.521 1123.86,158.24 1123.86,148.57C1123.86,103.464 1135.54,66.844 1149.92,66.844C1163.76,66.844 1175.1,100.776 1175.93,143.548C1213.38,124.783 1255.64,114.221 1300.34,114.221C1331.63,114.221 1361.73,119.397 1389.8,128.934C1392.55,86.706 1403.96,55 1417.6,55C1433.29,55 1446.03,96.927 1446.03,148.57C1446.03,150.852 1446,153.116 1445.95,155.353C1474.71,173.059 1535.84,217.398 1568.79,282.127C1568.93,285.898 1569,289.691 1569,293.5C1569,457.695 1435.69,591 1271.5,591C1174.05,591 1084.48,534.001 1030.21,461.515ZM1032.94,460.155C1025.87,435.52 1025,419.264 1025,392.562C1025,306.139 1064.9,228.963 1127.27,178.47C1128.07,177.824 1128.48,176.817 1128.36,175.797C1127.39,167.287 1126.86,158.121 1126.86,148.57C1126.86,122.001 1130.93,98.422 1137.28,83.818C1139.27,79.242 1141.46,75.583 1143.85,73.088C1145.78,71.072 1147.77,69.844 1149.92,69.844C1151.97,69.844 1153.88,70.972 1155.73,72.833C1158.03,75.139 1160.15,78.527 1162.09,82.771C1168.3,96.382 1172.44,118.438 1172.93,143.606C1172.95,144.635 1173.49,145.583 1174.38,146.115C1175.26,146.648 1176.35,146.691 1177.27,146.23C1214.32,127.668 1256.12,117.221 1300.34,117.221C1331.3,117.221 1361.06,122.34 1388.84,131.774C1389.72,132.075 1390.69,131.946 1391.47,131.428C1392.24,130.909 1392.73,130.059 1392.8,129.128C1394.41,104.274 1399.03,83.123 1405.4,70.189C1407.38,66.169 1409.51,62.978 1411.8,60.813C1413.65,59.052 1415.57,58 1417.6,58C1419.99,58 1422.21,59.434 1424.36,61.795C1427,64.684 1429.42,68.915 1431.61,74.212C1438.56,90.984 1443.03,118.059 1443.03,148.57C1443.03,150.83 1443,153.072 1442.95,155.288C1442.93,156.353 1443.47,157.35 1444.38,157.908C1472.79,175.397 1533.1,219.086 1565.81,282.899C1565.94,286.417 1566,289.951 1566,293.5C1566,456.039 1434.04,588 1271.5,588C1175.2,588 1086.71,531.723 1032.94,460.156L1032.94,460.155Z"/>
                    </g>
                    <g id="logo-mouth" transform="matrix(2.51315,0,0,2.51315,618.83,-539.359)">
                        <path id="lips" d="M199,239L237,237" style="fill:none;stroke:black;stroke-width:1.27px;"/>
                        <g id="tongue" transform="matrix(1,0,0,1,-16,-39)">
                            <path d="M224,278C224,278.205 244,276.805 244,277C244,282.795 243.004,291.417 234,292C227.063,292.449 224,283.795 224,278Z" style="fill:rgb(210,19,107);stroke:black;stroke-width:1.27px;"/>
                        </g>
                        <path id="tongue-line" d="M218,238L218,245.499" style="fill:none;stroke:black;stroke-width:1.27px;"/>
                        <g id="r-cheek" transform="matrix(1,0,0,1,-40,-40)">
                            <path d="M285.779,294.075C280.465,290.263 277,284.033 277,277C277,270.707 279.774,265.057 284.165,261.206" style="fill:none;stroke:black;stroke-width:1.27px;"/>
                        </g>
                        <g id="l-cheek" transform="matrix(0.708333,0,0,0.638421,34.7112,57.2269)">
                            <path d="M224.093,264.027C227.882,268.271 230.186,273.869 230.186,280C230.186,287.82 226.439,294.771 220.643,299.154" style="fill:none;stroke:black;stroke-width:1.88px;"/>
                        </g>
                    </g>
                    <g id="logo-left-eye" transform="matrix(2.51315,0,0,2.51315,618.83,-539.359)">
                        <g id="l-iris" transform="matrix(0.942222,0,0,0.965737,8.83997,0.619072)">
                            <circle cx="182.186" cy="193.186" r="29.186" style="fill:white;stroke:black;stroke-width:1.33px;"/>
                        </g>
                        <g id="l-pupil" transform="matrix(0.939032,0,0,0.939032,6.77361,4.0696)">
                            <circle cx="186.603" cy="196.603" r="24.603"/>
                        </g>
                    </g>
                    <g id="logo-right-eye" transform="matrix(2.51315,0,0,2.51315,618.83,-539.359)">
                        <g id="r-iris" transform="matrix(0.880081,0,0,0.965737,29.1404,0.619072)">
                            <circle cx="272.186" cy="193.186" r="29.186" style="fill:white;stroke:black;stroke-width:1.37px;"/>
                        </g>
                        <g id="r-pupil" transform="matrix(0.939032,0,0,0.939032,96.0431,2.5696)">
                            <circle cx="186.603" cy="196.603" r="24.603"/>
                        </g>
                    </g>
                    <g id="logo-hair" transform="matrix(2.51315,0,0,2.51315,618.83,-539.359)">
                        <path d="M224.997,111.018C225.251,111.437 248.707,106.94 248.171,110.966C249.364,110.466 257.801,108.045 276.166,115C274.166,127.142 272.812,141 253.218,143C247.911,143.542 246.877,126.136 248.18,110.966C246.653,121.882 241.927,146.178 230.218,149C223.811,150.544 221.003,136.157 224.993,111.045C222.988,123.183 217.985,140.14 212.052,143C195.457,151 197.33,123.344 201.103,119C202.26,117.668 224.464,110.869 224.999,111L225,110.998L225,111L225,111L224.997,111.018ZM248.166,111.004L248.18,110.998C248.068,111.707 247.96,112.402 247.857,113.085C247.955,112.364 248.056,111.669 248.166,111.004Z" style="fill:url(#_Linear2);stroke:black;stroke-width:1.27px;"/>
                    </g>
                </g>
                <g id="outline" transform="matrix(1.12567,0,0,1.12567,-158.406,-273.497)">
                    <path d="M1252.5,-4C1406.21,-4 1531,120.792 1531,274.5C1531,428.208 1406.21,553 1252.5,553C1098.79,553 974,428.208 974,274.5C974,120.792 1098.79,-4 1252.5,-4ZM1252.5,11.08C1397.89,11.08 1515.92,129.114 1515.92,274.5C1515.92,419.886 1397.89,537.92 1252.5,537.92C1107.11,537.92 989.08,419.886 989.08,274.5C989.08,129.114 1107.11,11.08 1252.5,11.08Z"/>
                </g>
            </g>
        </g>
    </g>
    <defs>
        <linearGradient id="_Linear2" x1="0" y1="0" x2="1" y2="0" gradientUnits="userSpaceOnUse" gradientTransform="matrix(85,-3.8043,3.8043,85,194,133)"><stop offset="0" style="stop-color:rgb(210,19,107);stop-opacity:1"/><stop offset="0.13" style="stop-color:rgb(210,10,0);stop-opacity:1"/><stop offset="0.25" style="stop-color:rgb(255,131,0);stop-opacity:1"/><stop offset="0.38" style="stop-color:rgb(255,227,8);stop-opacity:1"/><stop offset="0.5" style="stop-color:rgb(171,224,0);stop-opacity:1"/><stop offset="0.63" style="stop-color:rgb(50,185,255);stop-opacity:1"/><stop offset="0.75" style="stop-color:rgb(43,34,255);stop-opacity:1"/><stop offset="0.88" style="stop-color:rgb(186,9,255);stop-opacity:1"/><stop offset="1" style="stop-color:rgb(218,47,255);stop-opacity:1"/></linearGradient>
    </defs>
</svg>
