
<svg width="100%" height="100%" viewBox="0 0 591 591" xmlns="http://www.w3.org/2000/svg" style="fill-rule:evenodd;clip-rule:evenodd;stroke-linecap:round;stroke-linejoin:round;stroke-miterlimit:1.5;">
    <g transform="matrix(1,0,0,1,-2897,0)">
        <g id="tail">
        </g>
        <g id="mouth">
        </g>
        <g id="left-eye">
        </g>
        <g id="right-eye">
        </g>
        <rect id="Artboard5" x="2897" y="0" width="591" height="591" style="fill:none;"/>
        <g id="Artboard51" serif:id="Artboard5">
            <g id="outline" transform="matrix(1,0,0,1,1282,0)">
                <path d="M1910.5,0C2073.59,0 2206,132.409 2206,295.5C2206,458.591 2073.59,591 1910.5,591C1747.41,591 1615,458.591 1615,295.5C1615,132.409 1747.41,0 1910.5,0ZM1910.5,16C2064.76,16 2190,141.24 2190,295.5C2190,449.76 2064.76,575 1910.5,575C1756.24,575 1631,449.76 1631,295.5C1631,141.24 1756.24,16 1910.5,16Z"/>
            </g>
            <g id="zero" transform="matrix(0.506584,0,0,0.506584,1572.22,27.5335)">
                <path d="M3102.98,278.597C3102.98,243.978 3106.54,216.116 3113.66,195.011C3120.79,173.907 3131.37,157.629 3145.42,146.178C3159.47,134.727 3177.14,129.001 3198.45,129.001C3214.16,129.001 3227.94,132.164 3239.79,138.488C3251.64,144.813 3261.43,153.934 3269.15,165.851C3276.87,177.768 3282.93,192.282 3287.33,209.392C3291.72,226.502 3293.92,249.57 3293.92,278.597C3293.92,312.95 3290.39,340.679 3283.33,361.784C3276.27,382.888 3265.72,399.199 3251.67,410.717C3237.63,422.234 3219.88,427.993 3198.45,427.993C3170.22,427.993 3148.05,417.874 3131.94,397.635C3112.63,373.268 3102.98,333.589 3102.98,278.597ZM3139.93,278.597C3139.93,326.665 3145.55,358.655 3156.8,374.566C3168.06,390.478 3181.94,398.434 3198.45,398.434C3214.96,398.434 3228.84,390.444 3240.09,374.466C3251.34,358.488 3256.97,326.532 3256.97,278.597C3256.97,230.396 3251.34,198.373 3240.09,182.528C3228.84,166.683 3214.82,158.761 3198.05,158.761C3181.54,158.761 3168.35,165.751 3158.5,179.732C3146.12,197.574 3139.93,230.529 3139.93,278.597Z" style="fill-rule:nonzero;"/>
            </g>
            <g id="uh-one" transform="matrix(0.371626,0,0,0.371626,1899.92,110.896)">
                <path d="M3202.02,900L3152.71,900L3152.71,585.78C3140.84,597.103 3125.27,608.427 3106,619.75C3086.74,631.073 3069.43,639.566 3054.09,645.227L3054.09,597.56C3081.67,584.593 3105.78,568.887 3126.41,550.441C3147.05,531.995 3161.66,514.097 3170.24,496.747L3202.02,496.747L3202.02,900Z" style="fill-rule:nonzero;"/>
            </g>
            <g id="uh-zero-0" transform="matrix(0.371626,0,0,0.371626,1899.92,110.896)">
                <path d="M3328.31,701.935C3328.31,654.45 3333.2,616.234 3342.97,587.287C3352.74,558.34 3367.26,536.013 3386.53,520.306C3405.8,504.6 3430.04,496.747 3459.26,496.747C3480.81,496.747 3499.72,501.084 3515.97,509.759C3532.22,518.434 3545.65,530.945 3556.24,547.29C3566.83,563.636 3575.14,583.543 3581.17,607.011C3587.2,630.48 3590.21,662.121 3590.21,701.935C3590.21,749.054 3585.37,787.087 3575.69,816.035C3566.01,844.982 3551.54,867.354 3532.27,883.152C3513,898.95 3488.67,906.849 3459.26,906.849C3420.54,906.849 3390.14,892.969 3368.04,865.208C3341.56,831.787 3328.31,777.362 3328.31,701.935ZM3378.99,701.935C3378.99,767.865 3386.71,811.743 3402.14,833.567C3417.58,855.392 3436.62,866.304 3459.26,866.304C3481.91,866.304 3500.95,855.346 3516.38,833.43C3531.81,811.514 3539.53,767.682 3539.53,701.935C3539.53,635.822 3531.81,591.898 3516.38,570.165C3500.95,548.432 3481.73,537.565 3458.71,537.565C3436.07,537.565 3417.99,547.153 3404.47,566.33C3387.49,590.803 3378.99,636.004 3378.99,701.935Z" style="fill-rule:nonzero;"/>
            </g>
            <g id="uh-zero-1" transform="matrix(0.371626,0,0,0.371626,1899.92,110.896)">
                <path d="M3640.34,701.935C3640.34,654.45 3645.23,616.234 3655,587.287C3664.77,558.34 3679.29,536.013 3698.56,520.306C3717.82,504.6 3742.07,496.747 3771.29,496.747C3792.84,496.747 3811.74,501.084 3828,509.759C3844.25,518.434 3857.68,530.945 3868.27,547.29C3878.86,563.636 3887.17,583.543 3893.2,607.011C3899.22,630.48 3902.24,662.121 3902.24,701.935C3902.24,749.054 3897.4,787.087 3887.72,816.035C3878.04,844.982 3863.57,867.354 3844.3,883.152C3825.03,898.95 3800.69,906.849 3771.29,906.849C3732.57,906.849 3702.16,892.969 3680.07,865.208C3653.58,831.787 3640.34,777.362 3640.34,701.935ZM3691.02,701.935C3691.02,767.865 3698.74,811.743 3714.17,833.567C3729.6,855.392 3748.64,866.304 3771.29,866.304C3793.94,866.304 3812.98,855.346 3828.41,833.43C3843.84,811.514 3851.56,767.682 3851.56,701.935C3851.56,635.822 3843.84,591.898 3828.41,570.165C3812.98,548.432 3793.75,537.565 3770.74,537.565C3748.1,537.565 3730.01,547.153 3716.5,566.33C3699.51,590.803 3691.02,636.004 3691.02,701.935Z" style="fill-rule:nonzero;"/>
            </g>
            <path id="uh-curve" d="M3010.45,276.132C3070.58,276.132 3346.41,277.003 3374.22,238.298" style="fill:none;stroke:black;stroke-width:20px;"/>
        </g>
    </g>
</svg>
