<?xml version="1.0" encoding="UTF-8" standalone="no"?>
<!DOCTYPE svg PUBLIC "-//W3C//DTD SVG 1.1//EN" "http://www.w3.org/Graphics/SVG/1.1/DTD/svg11.dtd">
<svg width="100%" height="100%" viewBox="0 0 884 170" version="1.1" xmlns="http://www.w3.org/2000/svg" xmlns:xlink="http://www.w3.org/1999/xlink" xml:space="preserve" xmlns:serif="http://www.serif.com/" style="fill-rule:evenodd;clip-rule:evenodd;stroke-linejoin:round;stroke-miterlimit:2;">
    <g transform="matrix(1,0,0,1,-3690,-477)">
        <g transform="matrix(1,0,0,1,0,477)">
            <rect id="friday" x="3690" y="0" width="884" height="170" style="fill:none;"/>
            <g id="friday1" serif:id="friday">
                <g transform="matrix(0.317378,7.70372e-34,-3.85186e-34,0.317378,3185.14,-202.884)">
                    <text x="2547px" y="1072px" style="font-family:'Helvetica';font-size:479.993px;fill:rgb(234,218,196);">riday</text>
                </g>
                <g transform="matrix(-2.23553,0,0,2.23553,3272.34,-3860.42)">
                    <path d="M-321.993,1751.45L-316.729,1751.45C-317.303,1747.11 -317.973,1743.88 -318.739,1741.78C-321.1,1735.27 -324.8,1732.02 -329.841,1732.02C-332.33,1732.02 -334.276,1732.89 -335.68,1734.65C-337.084,1736.4 -337.786,1738.49 -337.786,1740.92C-337.786,1742.83 -337.371,1744.59 -336.541,1746.18L-339.987,1746.18C-340.944,1744.27 -341.423,1742.35 -341.423,1740.44C-341.423,1737.31 -340.338,1734.6 -338.169,1732.3C-335.999,1730.01 -333.16,1728.86 -329.65,1728.86C-323.46,1728.86 -318.866,1732.62 -315.867,1740.15C-314.91,1742.64 -314.017,1746.4 -313.187,1751.45L-305.147,1751.45L-305.147,1754.41L-313.187,1754.41L-313.187,1792.41C-313.187,1793.88 -312.756,1795.11 -311.895,1796.1C-311.034,1797.09 -309.741,1797.58 -308.019,1797.58C-306.615,1797.58 -305.051,1797.04 -303.329,1795.95C-302.754,1795.63 -301.989,1795.06 -301.031,1794.23L-299.596,1797.77C-300.361,1798.41 -301.031,1798.86 -301.606,1799.11C-303.456,1800.01 -305.594,1800.45 -308.019,1800.45C-311.592,1800.45 -314.112,1799.14 -315.58,1796.53C-316.027,1795.7 -316.41,1794.39 -316.729,1792.6L-316.729,1754.41L-321.993,1754.41L-321.993,1751.45Z" style="fill:rgb(234,218,196);fill-rule:nonzero;stroke:rgb(234,218,196);stroke-width:3.58px;"/>
                </g>
            </g>
        </g>
    </g>
</svg>
