<?xml version="1.0" encoding="UTF-8" standalone="no"?>
<!DOCTYPE svg PUBLIC "-//W3C//DTD SVG 1.1//EN" "http://www.w3.org/Graphics/SVG/1.1/DTD/svg11.dtd">
<svg width="100%" height="100%" viewBox="0 0 884 170" version="1.1" xmlns="http://www.w3.org/2000/svg" xmlns:xlink="http://www.w3.org/1999/xlink" xml:space="preserve" xmlns:serif="http://www.serif.com/" style="fill-rule:evenodd;clip-rule:evenodd;stroke-linejoin:round;stroke-miterlimit:2;">
    <g transform="matrix(1,0,0,1,-3690,-234)">
        <g transform="matrix(1,0,0,1,0,234)">
            <rect id="saturday" x="3690" y="0" width="884" height="170" style="fill:none;"/>
            <clipPath id="_clip1">
                <rect id="saturday1" serif:id="saturday" x="3690" y="0" width="884" height="170"/>
            </clipPath>
            <g clip-path="url(#_clip1)">
                <g transform="matrix(0.317378,7.70372e-34,-3.85186e-34,0.317378,3100.65,-208.344)">
                    <text x="2547px" y="1072px" style="font-family:'Helvetica';font-size:479.993px;fill:rgb(234,218,196);">aturday</text>
                </g>
                <g transform="matrix(2.53706,0,0,2.65662,4090.69,-4398.64)">
                    <path d="M-89.886,1665.02L-89.886,1658.7L-106.061,1658.7L-106.061,1655.73L-72.753,1655.73L-72.753,1658.7L-86.153,1658.7L-86.153,1668.17L-91.896,1668.17C-93.938,1668.17 -95.597,1668.53 -96.873,1669.23C-98.149,1669.93 -98.787,1671.11 -98.787,1672.77C-98.787,1673.09 -98.755,1673.44 -98.691,1673.82C-98.628,1674.2 -98.484,1674.73 -98.261,1675.4C-98.037,1676.07 -95.82,1676.95 -91.609,1678.03C-86.249,1679.37 -82.516,1680.65 -80.41,1681.86C-76.454,1684.16 -74.476,1687.35 -74.476,1691.43C-74.476,1695.45 -75.959,1698.64 -78.926,1701C-81.894,1703.37 -85.419,1704.55 -89.503,1704.55C-93.523,1704.55 -97.32,1703.14 -100.893,1700.33C-102.041,1699.44 -103.413,1698.04 -105.009,1696.12L-102.903,1693.16C-101.308,1694.94 -99.968,1696.28 -98.883,1697.18C-95.629,1699.86 -92.502,1701.2 -89.503,1701.2C-86.249,1701.2 -83.664,1700.4 -81.75,1698.8C-79.517,1696.95 -78.4,1694.18 -78.4,1690.48C-78.4,1686.97 -82.436,1684.38 -90.508,1682.72C-98.58,1681.06 -102.616,1678.26 -102.616,1674.3C-102.616,1671.62 -102.472,1669.93 -102.185,1669.23C-101.898,1668.53 -101.02,1667.66 -99.553,1666.64C-98.66,1666.01 -97.304,1665.57 -95.485,1665.35C-93.666,1665.13 -91.8,1665.02 -89.886,1665.02Z" style="fill:rgb(234,218,196);fill-rule:nonzero;stroke:rgb(234,218,196);stroke-width:3.08px;"/>
                </g>
            </g>
        </g>
    </g>
</svg>
